SplineFontDB: 3.0
FontName: Bodoni-11-Fatface-Italic
FullName: Bodoni* 11 Fatface Italic
FamilyName: Bodoni* 11 Fatface
Weight: Fatface
Copyright: Copyright (c) 2017, Owen Earl,,, (EwonRael@yahoo.com)
Version: 001.0
ItalicAngle: -13
UnderlinePosition: -100
UnderlineWidth: 50
Ascent: 800
Descent: 200
InvalidEm: 0
LayerCount: 2
Layer: 0 0 "Back" 1
Layer: 1 0 "Fore" 0
PreferredKerning: 4
XUID: [1021 31 -699969567 16487490]
FSType: 0
OS2Version: 0
OS2_WeightWidthSlopeOnly: 0
OS2_UseTypoMetrics: 1
CreationTime: 1460762150
ModificationTime: 1548282976
PfmFamily: 17
TTFWeight: 900
TTFWidth: 5
LineGap: 100
VLineGap: 0
OS2TypoAscent: 800
OS2TypoAOffset: 0
OS2TypoDescent: -200
OS2TypoDOffset: 0
OS2TypoLinegap: 100
OS2WinAscent: 1000
OS2WinAOffset: 0
OS2WinDescent: 400
OS2WinDOffset: 0
HheadAscent: 1000
HheadAOffset: 0
HheadDescent: -200
HheadDOffset: 0
OS2CapHeight: 700
OS2XHeight: 460
OS2FamilyClass: 768
OS2Vendor: 'PfEd'
OS2UnicodeRanges: 00000001.00000000.00000000.00000000
Lookup: 1 0 0 "'ss04' Style Set 4 lookup 5" { "'ss04' Style Set 4 lookup 5-1"  } ['ss04' ('DFLT' <'dflt' > 'grek' <'dflt' > 'latn' <'dflt' > ) ]
Lookup: 1 0 0 "'ss02' Style Set 2 lookup 4" { "'ss02' Style Set 2 lookup 4-1"  } ['ss02' ('DFLT' <'dflt' > 'grek' <'dflt' > 'latn' <'dflt' > ) ]
Lookup: 1 0 0 "'ss03' Style Set 3 lookup 5" { "'ss03' Style Set 3 lookup 5-1"  } ['ss03' ('DFLT' <'dflt' > 'grek' <'dflt' > 'latn' <'dflt' > ) ]
Lookup: 1 0 0 "'ss01' Style Set 1 lookup 2" { "'ss01' Style Set 1 lookup 2-1"  } ['ss01' ('DFLT' <'dflt' > 'grek' <'dflt' > 'latn' <'dflt' > ) ]
Lookup: 5 0 0 "'calt' Contextual Alternates lookup 3" { "'calt' Contextual Alternates lookup 3-1"  } ['calt' ('DFLT' <'dflt' > 'grek' <'dflt' > 'latn' <'dflt' > ) ]
Lookup: 4 0 1 "'liga' Standard Ligatures lookup 0" { "'liga' Standard Ligatures lookup 0-1"  } ['liga' ('DFLT' <'dflt' > 'grek' <'dflt' > 'latn' <'dflt' > ) ]

StartChar: ampersand
Encoding: 38 38 0
GlifName: ampersand
Width: 889
Flags: HMW
LayerCount: 2
Fore
SplineSet
429 36 m 0
 606 36 813 181 827 320 c 2
 829 337 l 21
 817 273 775 235 721 235 c 0
 661 235 618 287 618 342 c 4
 618 402 673 449 730 449 c 4
 788 449 849 402 849 326 c 4
 849 186 634 -10 309 -10 c 0
 176 -10 20 17 20 150 c 0
 20 390 491 320 491 650 c 0
 491 692 487 743 454 743 c 0
 420 743 413 683 413 620 c 0
 413 585 425 527 462 470 c 2
 696 95 l 2
 723 52 742 26 782 26 c 0
 813 26 834 40 854 75 c 1
 869 70 l 1
 850 26 809 -10 710 -10 c 0
 637 -10 551 3 471 121 c 2
 244 470 l 2
 216 511 208 548 208 583 c 0
 208 683 333 760 469 760 c 0
 556 760 685 725 685 625 c 0
 685 447 230 495 230 180 c 0
 230 58 345 36 429 36 c 0
EndSplineSet
EndChar

StartChar: period
Encoding: 46 46 1
GlifName: period
Width: 320
Flags: HMW
LayerCount: 2
Fore
SplineSet
40 110 m 4
 40 176 94 230 160 230 c 4
 226 230 280 176 280 110 c 4
 280 44 226 -10 160 -10 c 4
 94 -10 40 44 40 110 c 4
EndSplineSet
EndChar

StartChar: zero
Encoding: 48 48 2
GlifName: zero
Width: 700
Flags: HMW
LayerCount: 2
Fore
SplineSet
482 760 m 0
 630 760 723 645 723 516 c 0
 723 227 523 -10 312 -10 c 0
 164 -10 71 105 71 234 c 0
 71 523 271 760 482 760 c 0
482 743 m 0
 371 743 269 255 269 94 c 0
 269 38 275 7 312 7 c 4
 423 7 525 515 525 656 c 0
 525 712 519 743 482 743 c 0
EndSplineSet
EndChar

StartChar: one
Encoding: 49 49 3
GlifName: one
Width: 555
VWidth: 1155
Flags: HMW
LayerCount: 2
Fore
SplineSet
-40 20 m 1
 395 20 l 5
 395 0 l 5
 -40 0 l 1
 -40 20 l 1
235 730 m 1
 122 730 l 1
 122 750 l 1
 455 750 l 5
 285 0 l 5
 70 0 l 1
 235 730 l 1
EndSplineSet
EndChar

StartChar: two
Encoding: 50 50 4
GlifName: two
Width: 660
VWidth: 1155
Flags: HMW
LayerCount: 2
Fore
SplineSet
124 560 m 1
 135 593 179 632 226 632 c 0
 288 632 332 589 332 531 c 0
 332 461 267 412 212 412 c 0
 157 412 95 447 95 529 c 0
 95 646 238 760 415 760 c 0
 516 760 647 730 647 600 c 4
 647 470 431 376 331 315 c 6
 159 210 l 5
 563 210 l 1
 581 285 l 1
 601 285 l 1
 534 0 l 1
 -41 0 l 1
 -7 135 l 1
 238 286 l 2
 360 361 425 504 425 598 c 0
 425 672 391 709 313 709 c 0
 229 709 133 630 124 560 c 1
EndSplineSet
EndChar

StartChar: three
Encoding: 51 51 5
GlifName: three
Width: 631
VWidth: 1155
Flags: HMW
LayerCount: 2
Fore
SplineSet
140 600 m 0
 140 692 249 759 371 759 c 0
 502 759 641 722 641 602 c 4
 641 472 479 401 248 401 c 1
 248 415 l 1
 407 415 430 587 430 651 c 0
 430 725 405 737 346 737 c 0
 302 737 251 719 217 695 c 1
 221 696 239 699 257 699 c 0
 316 699 354 649 354 594 c 0
 354 534 302 488 247 488 c 0
 187 488 140 539 140 600 c 0
5 181 m 0
 5 252 50 301 115 301 c 0
 175 301 219 251 219 195 c 0
 219 133 171 90 112 90 c 0
 91 90 62 95 50 102 c 1
 71 64 126 11 221 11 c 0
 340 11 370 186 370 280 c 0
 370 354 337 396 248 396 c 1
 248 410 l 1
 459 410 581 360 581 240 c 0
 581 70 392 -10 231 -10 c 0
 79 -10 5 99 5 181 c 0
EndSplineSet
EndChar

StartChar: four
Encoding: 52 52 6
GlifName: four
Width: 726
VWidth: 1155
Flags: HMW
LayerCount: 2
Fore
SplineSet
600 20 m 5
 600 0 l 5
 215 0 l 5
 215 20 l 5
 600 20 l 5
716 750 m 5
 515 0 l 5
 300 0 l 5
 463 654 l 5
 79 225 l 5
 675 225 l 5
 675 205 l 5
 35 205 l 5
 526 750 l 5
 716 750 l 5
EndSplineSet
Substitution2: "'ss03' Style Set 3 lookup 5-1" four.alt
EndChar

StartChar: five
Encoding: 53 53 7
GlifName: five
Width: 627
VWidth: 1155
Flags: HMW
LayerCount: 2
Fore
SplineSet
586 270 m 0
 586 80 367 -10 216 -10 c 4
 74 -10 0 67 0 159 c 4
 0 220 47 271 107 271 c 0
 162 271 214 225 214 165 c 0
 214 100 166 60 107 60 c 0
 76 60 58 70 50 73 c 5
 80 37 122 8 206 8 c 0
 335 8 371 206 371 320 c 0
 371 394 335 413 286 413 c 0
 231 413 165 390 130 347 c 1
 111 347 l 1
 147 404 237 440 328 440 c 0
 469 440 586 400 586 270 c 0
621 540 m 1
 188 540 l 1
 121 347 l 1
 103 347 l 1
 237 750 l 1
 649 750 l 1
 662 805 l 1
 682 805 l 1
 621 540 l 1
EndSplineSet
EndChar

StartChar: six
Encoding: 54 54 8
GlifName: six
Width: 660
VWidth: 1155
Flags: HMW
LayerCount: 2
Fore
SplineSet
420 390 m 0
 420 444 414 461 390 461 c 4
 317 461 253 190 253 80 c 1
 231 80 l 1
 231 197 264 495 425 495 c 4
 526 495 640 440 640 300 c 0
 640 110 455 -10 284 -10 c 0
 153 -10 50 60 50 220 c 0
 50 473 322 760 665 760 c 1
 665 743 l 1
 431 743 255 372 255 240 c 1
 253 80 l 1
 253 36 265 10 291 10 c 0
 361 10 420 286 420 390 c 0
EndSplineSet
EndChar

StartChar: seven
Encoding: 55 55 9
GlifName: seven
Width: 608
VWidth: 1155
Flags: HMW
LayerCount: 2
Fore
SplineSet
136 106 m 4
 136 205 257 267 351 364 c 0
 416 431 442 460 503 535 c 1
 152 535 l 1
 135 460 l 1
 115 460 l 1
 181 750 l 1
 708 750 l 1
 708 750 531 526 417 402 c 0
 341 320 314 297 314 252 c 0
 314 209 376 174 376 108 c 4
 376 41 326 -10 252 -10 c 4
 188 -10 136 27 136 106 c 4
EndSplineSet
EndChar

StartChar: eight
Encoding: 56 56 10
GlifName: eight
Width: 670
VWidth: 1155
Flags: HMW
LayerCount: 2
Fore
SplineSet
330 450 m 0
 330 426 331 395 352 395 c 0
 411 395 460 596 460 690 c 0
 460 704 459 740 433 740 c 0
 394 740 330 544 330 450 c 0
120 525 m 0
 120 645 264 760 435 760 c 0
 586 760 670 675 670 595 c 0
 670 465 496 380 355 380 c 0
 234 380 120 445 120 525 c 0
230 80 m 0
 230 36 236 10 265 10 c 0
 334 10 390 206 390 300 c 0
 390 344 384 375 355 375 c 0
 286 375 230 174 230 80 c 0
30 150 m 0
 30 270 134 390 335 390 c 0
 506 390 600 330 600 230 c 0
 600 110 496 -10 295 -10 c 0
 124 -10 30 50 30 150 c 0
EndSplineSet
EndChar

StartChar: A
Encoding: 65 65 12
GlifName: A_
Width: 820
Flags: HMW
LayerCount: 2
Fore
SplineSet
-50 20 m 5
 170 20 l 5
 170 0 l 5
 -50 0 l 5
 -50 20 l 5
340 20 m 5
 750 20 l 5
 750 0 l 5
 340 0 l 5
 340 20 l 5
180 255 m 5
 510 255 l 5
 510 235 l 5
 180 235 l 5
 180 255 l 5
394 600 m 5
 49 0 l 5
 24 0 l 5
 465 765 l 5
 585 765 l 5
 680 0 l 5
 455 0 l 5
 394 600 l 5
EndSplineSet
EndChar

StartChar: B
Encoding: 66 66 13
GlifName: B_
Width: 740
Flags: HMW
LayerCount: 2
Fore
SplineSet
320 0 m 2
 -50 0 l 1
 -50 20 l 1
 320 20 l 2
 391 20 460 111 460 260 c 0
 460 349 432 375 376 375 c 2
 270 375 l 1
 270 390 l 1
 406 390 l 2
 547 390 690 350 690 220 c 0
 690 70 501 0 320 0 c 2
215 750 m 1
 430 750 l 1
 255 0 l 1
 40 0 l 1
 215 750 l 1
390 380 m 2
 270 380 l 1
 270 395 l 1
 390 395 l 2
 466 395 525 506 525 635 c 0
 525 694 506 730 460 730 c 2
 125 730 l 1
 125 750 l 1
 465 750 l 2
 646 750 745 705 745 585 c 4
 745 445 551 380 390 380 c 2
EndSplineSet
EndChar

StartChar: C
Encoding: 67 67 14
GlifName: C_
Width: 728
Flags: HMW
LayerCount: 2
Fore
SplineSet
355 -10 m 4
 172 -10 50 92 50 255 c 4
 50 528 252 760 505 760 c 4
 643 760 712 658 740 515 c 5
 720 515 l 5
 679 667 609 730 545 730 c 4
 361 730 270 357 270 175 c 4
 270 83 279 18 383 18 c 4
 487 18 575 133 665 235 c 5
 685 235 l 5
 605 112 498 -10 355 -10 c 4
720 515 m 5
 707 607 l 5
 655 675 l 5
 778 750 l 5
 793 750 l 5
 740 515 l 5
 720 515 l 5
665 235 m 5
 685 235 l 5
 630 0 l 5
 615 0 l 5
 525 70 l 5
 610 143 l 5
 665 235 l 5
EndSplineSet
EndChar

StartChar: D
Encoding: 68 68 15
GlifName: D_
Width: 820
Flags: HMW
LayerCount: 2
Fore
SplineSet
220 750 m 1
 435 750 l 1
 265 0 l 1
 50 0 l 1
 220 750 l 1
365 0 m 2
 -40 0 l 1
 -40 20 l 1
 325 20 l 2
 509 20 591 403 591 565 c 4
 591 657 579 730 485 730 c 2
 120 730 l 1
 120 750 l 1
 515 750 l 2
 678 750 820 668 820 475 c 0
 820 232 638 0 365 0 c 2
EndSplineSet
EndChar

StartChar: E
Encoding: 69 69 16
GlifName: E_
Width: 659
Flags: HMW
LayerCount: 2
Fore
SplineSet
119 750 m 5
 734 750 l 5
 686 545 l 5
 666 545 l 5
 661 652 606 730 489 730 c 6
 119 730 l 5
 119 750 l 5
209 750 m 1
 424 750 l 1
 250 0 l 1
 35 0 l 1
 209 750 l 1
358 378 m 6
 297 378 l 5
 297 398 l 5
 358 398 l 6
 415 398 476 456 521 523 c 5
 541 523 l 5
 477 248 l 5
 457 248 l 5
 442 315 415 378 358 378 c 6
570 0 m 5
 -50 0 l 5
 -50 20 l 5
 315 20 l 6
 452 20 543 98 602 225 c 5
 622 225 l 5
 570 0 l 5
EndSplineSet
EndChar

StartChar: F
Encoding: 70 70 17
GlifName: F_
Width: 629
Flags: HMW
LayerCount: 2
Fore
SplineSet
339 363 m 6
 304 363 l 1
 304 383 l 1
 339 383 l 6
 405 383 465 446 508 513 c 5
 528 513 l 1
 463 228 l 1
 443 228 l 1
 428 295 406 363 339 363 c 6
-50 20 m 1
 350 20 l 1
 350 0 l 1
 -50 0 l 1
 -50 20 l 1
209 750 m 1
 424 750 l 1
 250 0 l 1
 35 0 l 1
 209 750 l 1
119 750 m 1
 714 750 l 1
 666 545 l 1
 646 545 l 1
 641 652 596 730 479 730 c 2
 119 730 l 1
 119 750 l 1
EndSplineSet
EndChar

StartChar: G
Encoding: 71 71 18
GlifName: G_
Width: 833
Flags: HMW
LayerCount: 2
Fore
SplineSet
528 280 m 1
 752 280 l 1
 722 165 l 1
 677 102 518 -10 355 -10 c 0
 182 -10 50 72 50 255 c 0
 50 548 292 760 535 760 c 0
 673 760 757 658 779 515 c 1
 759 515 l 1
 732 647 659 730 575 730 c 0
 381 730 270 397 270 195 c 0
 270 93 291 20 365 20 c 0
 419 20 452 63 487 125 c 1
 528 280 l 1
420 295 m 1
 790 295 l 1
 790 275 l 1
 420 275 l 1
 420 295 l 1
818 750 m 1
 833 750 l 1
 779 515 l 1
 759 515 l 1
 748 596 l 1
 689 690 l 5
 818 750 l 1
EndSplineSet
EndChar

StartChar: H
Encoding: 72 72 19
GlifName: H_
Width: 835
Flags: HMW
LayerCount: 2
Fore
SplineSet
385 20 m 1
 765 20 l 1
 765 0 l 1
 385 0 l 1
 385 20 l 1
550 750 m 1
 930 750 l 1
 930 730 l 1
 550 730 l 1
 550 750 l 1
630 750 m 1
 845 750 l 1
 675 0 l 1
 460 0 l 1
 630 750 l 1
-45 20 m 1
 335 20 l 5
 335 0 l 5
 -45 0 l 1
 -45 20 l 1
120 750 m 1
 500 750 l 5
 500 730 l 5
 120 730 l 1
 120 750 l 1
210 750 m 1
 425 750 l 1
 255 0 l 1
 40 0 l 1
 210 750 l 1
202 380 m 1
 562 380 l 1
 562 360 l 1
 202 360 l 1
 202 380 l 1
EndSplineSet
EndChar

StartChar: I
Encoding: 73 73 20
GlifName: I_
Width: 465
Flags: HMW
LayerCount: 2
Fore
SplineSet
-45 20 m 1
 395 20 l 1
 395 0 l 1
 -45 0 l 1
 -45 20 l 1
120 750 m 1
 560 750 l 1
 560 730 l 1
 120 730 l 1
 120 750 l 1
235 750 m 1
 450 750 l 1
 280 0 l 1
 65 0 l 1
 235 750 l 1
EndSplineSet
EndChar

StartChar: J
Encoding: 74 74 21
GlifName: J_
Width: 626
Flags: HMW
LayerCount: 2
Fore
SplineSet
271 750 m 5
 721 750 l 5
 721 730 l 5
 271 730 l 5
 271 750 l 5
41 25 m 5
 54 13 91 -8 141 -8 c 4
 202 -8 247 50 279 190 c 6
 406 750 l 5
 621 750 l 5
 490 169 l 5
 400 49 312 -30 171 -30 c 4
 44 -30 -35 35 -35 125 c 4
 -35 187 12 250 92 250 c 4
 157 250 208 202 208 131 c 4
 208 61 149 13 85 13 c 4
 72 13 53 17 41 25 c 5
EndSplineSet
Substitution2: "'ss02' Style Set 2 lookup 4-1" J.alt
EndChar

StartChar: K
Encoding: 75 75 22
GlifName: K_
Width: 847
Flags: HMW
LayerCount: 2
Fore
SplineSet
-45 20 m 1
 335 20 l 1
 335 0 l 1
 -45 0 l 1
 -45 20 l 1
120 750 m 1
 520 750 l 5
 520 730 l 5
 120 730 l 1
 120 750 l 1
210 750 m 1
 425 750 l 1
 255 0 l 1
 40 0 l 1
 210 750 l 1
193 217 m 1
 154 217 l 1
 793 748 l 1
 827 748 l 1
 193 217 l 1
382 20 m 1
 788 20 l 1
 788 0 l 1
 382 0 l 1
 382 20 l 1
907 730 m 1
 667 730 l 1
 667 750 l 1
 907 750 l 1
 907 730 l 1
710 0 m 1
 471 0 l 1
 343 370 l 1
 524 513 l 1
 710 0 l 1
EndSplineSet
EndChar

StartChar: L
Encoding: 76 76 23
GlifName: L_
Width: 652
Flags: HMW
LayerCount: 2
Fore
SplineSet
209 750 m 1
 424 750 l 1
 250 0 l 1
 35 0 l 1
 209 750 l 1
119 750 m 1
 514 750 l 1
 514 730 l 1
 119 730 l 1
 119 750 l 1
570 0 m 1
 -50 0 l 1
 -50 20 l 1
 295 20 l 6
 452 20 543 98 602 225 c 1
 622 225 l 1
 570 0 l 1
EndSplineSet
EndChar

StartChar: M
Encoding: 77 77 24
GlifName: M_
Width: 950
Flags: HMW
LayerCount: 2
Fore
SplineSet
515 20 m 5
 880 20 l 5
 880 0 l 5
 515 0 l 5
 515 20 l 5
956 730 m 1
 800 0 l 1
 585 0 l 1
 745 750 l 1
 1020 750 l 1
 1020 730 l 1
 956 730 l 1
487 300 m 1
 733 750 l 1
 758 750 l 1
 341 -10 l 1
 316 -10 l 1
 198 750 l 1
 414 750 l 1
 487 300 l 1
191 730 m 1
 120 730 l 1
 120 750 l 1
 217 750 l 1
 57 0 l 1
 35 0 l 1
 191 730 l 1
-30 20 m 1
 132 20 l 1
 132 0 l 1
 -30 0 l 1
 -30 20 l 1
EndSplineSet
EndChar

StartChar: N
Encoding: 78 78 25
GlifName: N_
Width: 770
Flags: HMW
LayerCount: 2
Fore
SplineSet
748 750 m 1
 770 750 l 1
 597 -10 l 1
 562 -10 l 1
 220 750 l 1
 475 750 l 1
 659 359 l 5
 748 750 l 1
628 750 m 1
 865 750 l 1
 865 730 l 1
 628 730 l 1
 628 750 l 1
-40 20 m 1
 202 20 l 1
 202 0 l 1
 -40 0 l 1
 -40 20 l 1
221 730 m 1
 120 730 l 1
 120 750 l 1
 247 750 l 1
 77 0 l 1
 55 0 l 1
 221 730 l 1
EndSplineSet
EndChar

StartChar: O
Encoding: 79 79 26
GlifName: O_
Width: 790
Flags: HMW
LayerCount: 2
Fore
SplineSet
335 -10 m 0
 152 -10 50 92 50 255 c 0
 50 568 292 760 505 760 c 0
 678 760 790 658 790 495 c 0
 790 182 558 -10 335 -10 c 0
505 743 m 0
 381 743 260 367 260 135 c 0
 260 33 281 7 335 7 c 0
 469 7 580 383 580 615 c 0
 580 697 559 743 505 743 c 0
EndSplineSet
EndChar

StartChar: P
Encoding: 80 80 27
GlifName: P_
Width: 735
Flags: HMW
LayerCount: 2
Fore
SplineSet
210 750 m 5
 425 750 l 5
 250 0 l 5
 35 0 l 5
 210 750 l 5
-45 20 m 5
 350 20 l 5
 350 0 l 5
 -45 0 l 5
 -45 20 l 5
425 330 m 6
 315 330 l 5
 315 350 l 5
 375 350 l 6
 491 350 537 521 537 630 c 4
 537 689 521 730 475 730 c 6
 120 730 l 5
 120 750 l 5
 525 750 l 6
 656 750 765 710 765 590 c 4
 765 440 626 330 425 330 c 6
EndSplineSet
EndChar

StartChar: Q
Encoding: 81 81 28
GlifName: Q_
Width: 760
Flags: HMW
LayerCount: 2
Fore
SplineSet
530 -230 m 5
 530 -250 l 5
 277 -250 170 -163 220 10 c 5
 296 -4 374 -3 455 10 c 5
 405 -172 456 -230 530 -230 c 5
505 743 m 0
 381 743 260 367 260 135 c 0
 260 33 281 7 335 7 c 0
 469 7 580 383 580 615 c 0
 580 697 559 743 505 743 c 0
335 -10 m 0
 152 -10 50 92 50 255 c 0
 50 568 292 760 505 760 c 0
 678 760 790 658 790 495 c 0
 790 182 558 -10 335 -10 c 0
EndSplineSet
EndChar

StartChar: R
Encoding: 82 82 29
GlifName: R_
Width: 820
Flags: HMW
LayerCount: 2
Fore
SplineSet
735 12 m 5
 699 -2 651 -10 595 -10 c 4
 272 -10 621 375 375 375 c 6
 330 375 l 5
 330 385 l 5
 445 385 l 6
 838 385 582 20 685 20 c 4
 706 20 715 25 729 31 c 5
 735 12 l 5
230 750 m 5
 445 750 l 5
 270 0 l 5
 55 0 l 5
 230 750 l 5
-35 20 m 5
 380 20 l 5
 380 0 l 5
 -35 0 l 5
 -35 20 l 5
435 382 m 6
 330 382 l 5
 330 395 l 5
 385 395 l 6
 531 395 565 561 565 640 c 4
 565 689 545 730 465 730 c 6
 130 730 l 5
 130 750 l 5
 535 750 l 6
 666 750 780 710 780 600 c 4
 780 460 636 382 435 382 c 6
EndSplineSet
Substitution2: "'ss01' Style Set 1 lookup 2-1" R.alt
EndChar

StartChar: S
Encoding: 83 83 30
GlifName: S_
Width: 631
Flags: HMW
LayerCount: 2
Fore
SplineSet
569 611 m 1
 516 705 l 1
 651 760 l 1
 666 760 l 1
 609 515 l 1
 589 515 l 1
 569 611 l 1
609 515 m 1
 589 515 l 1
 559 624 504 737 400 737 c 4
 334 737 273 694 273 635 c 0
 273 500 593 520 593 280 c 0
 593 140 459 -15 278 -15 c 0
 122 -15 63 135 33 255 c 1
 53 255 l 1
 83 156 139 9 268 9 c 0
 364 9 418 66 418 135 c 0
 418 310 103 245 103 495 c 0
 103 665 259 760 390 760 c 4
 518 760 579 646 609 515 c 1
-10 -10 m 1
 -25 -10 l 1
 33 255 l 1
 53 255 l 1
 81 131 l 1
 130 49 l 1
 -10 -10 l 1
EndSplineSet
EndChar

StartChar: T
Encoding: 84 84 31
GlifName: T_
Width: 722
Flags: HMW
LayerCount: 2
Fore
SplineSet
93 20 m 1
 528 20 l 1
 528 0 l 1
 93 0 l 1
 93 20 l 1
367 750 m 1
 582 750 l 1
 408 0 l 1
 193 0 l 1
 367 750 l 1
607 730 m 6
 332 730 l 6
 235 730 149 621 90 495 c 1
 70 495 l 1
 127 750 l 5
 822 750 l 5
 765 495 l 1
 745 495 l 1
 744 622 704 730 607 730 c 6
EndSplineSet
EndChar

StartChar: U
Encoding: 85 85 32
GlifName: U_
Width: 737
Flags: HMW
LayerCount: 2
Fore
SplineSet
637 750 m 1
 832 750 l 1
 832 730 l 1
 637 730 l 1
 637 750 l 1
117 750 m 1
 522 750 l 1
 522 730 l 1
 117 730 l 1
 117 750 l 1
732 750 m 1
 752 750 l 1
 632 230 l 2
 596 73 490 -15 332 -15 c 0
 169 -15 54 66 92 230 c 2
 212 750 l 1
 427 750 l 1
 307 240 l 2
 278 115 278 20 392 20 c 0
 476 20 579 86 612 230 c 2
 732 750 l 1
EndSplineSet
EndChar

StartChar: V
Encoding: 86 86 33
GlifName: V_
Width: 815
Flags: HMW
LayerCount: 2
Fore
SplineSet
915 730 m 5
 695 730 l 5
 695 750 l 5
 915 750 l 5
 915 730 l 5
525 730 m 5
 115 730 l 5
 115 750 l 5
 525 750 l 5
 525 730 l 5
471 150 m 5
 816 750 l 5
 841 750 l 5
 400 -15 l 5
 280 -15 l 5
 185 750 l 5
 410 750 l 5
 471 150 l 5
EndSplineSet
EndChar

StartChar: W
Encoding: 87 87 34
GlifName: W_
Width: 1228
Flags: HMW
LayerCount: 2
Fore
SplineSet
535 203 m 1
 702 477 l 1
 726 477 l 1
 433 -10 l 1
 328 -10 l 1
 187 750 l 1
 439 750 l 1
 535 203 l 1
796 417 m 1
 772 417 l 1
 977 750 l 5
 1001 750 l 5
 796 417 l 1
1328 730 m 1
 1128 730 l 1
 1128 750 l 1
 1328 750 l 1
 1328 730 l 1
1090 730 m 1
 115 730 l 1
 115 750 l 1
 1090 750 l 1
 1090 730 l 1
888 202 m 1
 1228 750 l 1
 1252 750 l 1
 784 -10 l 1
 709 -10 l 1
 568 750 l 1
 788 750 l 1
 888 202 l 1
EndSplineSet
EndChar

StartChar: X
Encoding: 88 88 35
GlifName: X_
Width: 830
Flags: HMW
LayerCount: 2
Fore
SplineSet
464 377 m 1
 431 377 l 1
 778 748 l 1
 806 748 l 1
 464 377 l 1
59 0 m 1
 28 0 l 1
 435 417 l 5
 465 417 l 5
 59 0 l 1
375 20 m 1
 775 20 l 1
 775 0 l 1
 375 0 l 1
 375 20 l 1
-55 20 m 1
 185 20 l 1
 185 0 l 1
 -55 0 l 1
 -55 20 l 1
550 730 m 1
 150 730 l 1
 150 750 l 1
 550 750 l 1
 550 730 l 1
890 730 m 1
 670 730 l 1
 670 750 l 1
 890 750 l 1
 890 730 l 1
706 0 m 1
 471 0 l 1
 220 750 l 1
 451 750 l 1
 706 0 l 1
EndSplineSet
EndChar

StartChar: Y
Encoding: 89 89 36
GlifName: Y_
Width: 780
Flags: HMW
LayerCount: 2
Fore
SplineSet
880 730 m 1
 670 730 l 1
 670 750 l 1
 880 750 l 1
 880 730 l 1
535 730 m 5
 115 730 l 1
 115 750 l 1
 535 750 l 5
 535 730 l 5
140 20 m 1
 545 20 l 1
 545 0 l 1
 140 0 l 1
 140 20 l 1
536 415 m 1
 777 748 l 1
 806 748 l 1
 529 371 l 1
 445 0 l 1
 230 0 l 1
 315 377 l 1
 185 750 l 1
 435 750 l 1
 536 415 l 1
EndSplineSet
EndChar

StartChar: Z
Encoding: 90 90 37
GlifName: Z_
Width: 664
Flags: HMW
LayerCount: 2
Fore
SplineSet
464 730 m 1
 369 730 l 2
 232 730 172 657 107 550 c 1
 87 550 l 1
 134 750 l 1
 729 750 l 1
 729 730 l 1
 210 20 l 5
 335 20 l 2
 472 20 522 94 601 220 c 1
 621 220 l 1
 570 0 l 1
 -55 0 l 1
 -55 20 l 1
 464 730 l 1
EndSplineSet
EndChar

StartChar: a
Encoding: 97 97 38
GlifName: a
Width: 690
VWidth: 1155
Flags: HMW
LayerCount: 2
Fore
SplineSet
379 314 m 0
 379 367 364 401 343 401 c 0
 299 401 224 254 224 120 c 0
 224 86 238 59 259 59 c 0
 310 59 379 210 379 314 c 0
395 314 m 0
 395 206 320 -10 179 -10 c 0
 110 -10 20 30 20 160 c 0
 20 360 177 469 286 469 c 0
 362 469 395 406 395 314 c 0
665 163 m 1
 627 63 548 -10 437 -10 c 0
 360 -10 340 22 340 73 c 0
 340 78 341 89 342 95 c 2
 360 182 l 1
 385 263 l 1
 391 324 l 1
 430 460 l 5
 613 460 l 1
 505 76 l 2
 504 70 503 63 503 58 c 0
 503 47 508 39 521 39 c 0
 565 39 622 103 645 169 c 1
 665 163 l 1
EndSplineSet
EndChar

StartChar: b
Encoding: 98 98 39
GlifName: b
Width: 668
VWidth: 1155
Flags: HMW
LayerCount: 2
Fore
SplineSet
209 730 m 1
 136 730 l 1
 136 750 l 1
 404 750 l 1
 252 90 l 1
 252 46 265 16 286 16 c 4
 340 16 429 205 429 339 c 0
 429 373 415 400 394 400 c 0
 368 400 311 344 284 230 c 1
 274 230 l 1
 311 402 395 469 476 469 c 0
 543 469 633 438 633 310 c 0
 633 100 460 -10 281 -10 c 0
 220 -10 140 17 70 120 c 1
 209 730 l 1
EndSplineSet
EndChar

StartChar: c
Encoding: 99 99 40
GlifName: c
Width: 534
VWidth: 1155
Flags: HMW
LayerCount: 2
Fore
SplineSet
450 420 m 1
 425 440 402 447 378 447 c 4
 279 447 224 254 224 130 c 0
 224 46 245 34 279 34 c 0
 314 34 365 60 430 143 c 1
 449 143 l 1
 383 46 310 -10 199 -10 c 0
 108 -10 20 30 20 150 c 0
 20 340 177 470 348 470 c 0
 440 470 519 418 519 336 c 4
 519 275 477 229 417 229 c 0
 362 229 310 265 310 325 c 0
 310 390 368 426 407 426 c 0
 428 426 446 421 450 420 c 1
EndSplineSet
EndChar

StartChar: d
Encoding: 100 100 41
GlifName: d
Width: 710
VWidth: 1155
Flags: HMW
LayerCount: 2
Fore
SplineSet
685 163 m 5
 647 63 568 -10 457 -10 c 4
 380 -10 340 13 340 83 c 4
 340 88 341 99 342 105 c 6
 360 182 l 5
 385 263 l 5
 391 324 l 5
 486 730 l 5
 397 730 l 5
 397 750 l 5
 680 750 l 5
 525 76 l 6
 524 70 523 63 523 58 c 4
 523 47 528 39 541 39 c 4
 585 39 642 103 665 169 c 5
 685 163 l 5
379 314 m 0
 379 367 364 401 343 401 c 0
 299 401 224 254 224 120 c 0
 224 86 238 59 259 59 c 0
 310 59 379 210 379 314 c 0
395 314 m 0
 395 206 320 -10 179 -10 c 0
 110 -10 20 30 20 160 c 0
 20 360 177 470 276 470 c 0
 352 470 395 406 395 314 c 0
EndSplineSet
EndChar

StartChar: e
Encoding: 101 101 42
GlifName: e
Width: 564
VWidth: 1155
Flags: HMW
LayerCount: 2
Fore
SplineSet
224 91 m 0
 224 47 250 26 289 26 c 0
 342 26 422 73 470 143 c 1
 489 143 l 1
 440 66 340 -10 229 -10 c 0
 118 -10 20 30 20 150 c 0
 20 333 190 470 351 470 c 0
 453 470 544 434 544 362 c 0
 544 232 326 197 215 197 c 5
 215 212 l 1
 254 212 378 258 378 392 c 0
 378 419 375 452 355 452 c 0
 306 452 224 235 224 91 c 0
EndSplineSet
EndChar

StartChar: f
Encoding: 102 102 43
GlifName: f
Width: 504
VWidth: 1155
Flags: HMW
LayerCount: 2
Fore
SplineSet
91 460 m 1
 501 460 l 1
 501 440 l 1
 91 440 l 1
 91 460 l 1
578 719 m 1
 564 727 536 738 505 738 c 0
 435 738 392 662 371 540 c 2
 275 -12 l 2
 241 -206 107 -260 -23 -260 c 0
 -134 -260 -200 -193 -200 -131 c 0
 -200 -70 -164 -29 -104 -29 c 0
 -49 -29 3 -63 3 -123 c 0
 3 -183 -44 -222 -93 -222 c 0
 -103 -222 -117 -219 -119 -219 c 1
 -107 -226 -78 -238 -46 -238 c 0
 24 -238 67 -162 88 -40 c 2
 184 512 l 2
 218 706 352 760 482 760 c 0
 593 760 659 693 659 631 c 0
 659 570 623 529 563 529 c 0
 508 529 456 563 456 623 c 0
 456 683 503 722 552 722 c 0
 562 722 576 719 578 719 c 1
EndSplineSet
EndChar

StartChar: g
Encoding: 103 103 44
GlifName: g
Width: 720
VWidth: 1155
Flags: HMW
LayerCount: 2
Fore
SplineSet
162 -32 m 1
 137 -47 108 -80 108 -132 c 0
 108 -210 167 -240 263 -240 c 0
 342 -240 450 -219 450 -127 c 0
 450 -73 413 -59 358 -59 c 0
 337 -59 226 -59 204 -59 c 0
 114 -59 41 -13 41 49 c 0
 41 153 175 177 280 177 c 1
 278 168 l 1
 245 168 160 152 160 121 c 0
 160 104 195 99 250 99 c 0
 285 99 363 100 391 100 c 0
 496 100 545 44 545 -42 c 0
 545 -203 378 -260 248 -260 c 0
 125 -260 -40 -230 -40 -135 c 0
 -40 -44 107 -32 152 -32 c 2
 162 -32 l 1
735 372 m 0
 735 307 694 284 659 284 c 0
 624 284 584 306 584 359 c 0
 584 397 609 431 652 431 c 0
 668 431 695 422 699 420 c 1
 689 436 663 445 641 445 c 0
 591 445 548 422 498 335 c 1
 481 347 l 1
 531 438 591 465 641 465 c 0
 708 465 735 417 735 372 c 0
292 180 m 0
 321 180 371 311 371 405 c 0
 371 429 371 450 352 450 c 0
 323 450 273 319 273 225 c 0
 273 201 273 180 292 180 c 0
287 160 m 0
 176 160 89 195 89 285 c 0
 89 395 216 470 357 470 c 0
 468 470 555 435 555 345 c 0
 555 235 428 160 287 160 c 0
EndSplineSet
EndChar

StartChar: h
Encoding: 104 104 45
GlifName: h
Width: 680
VWidth: 1155
Flags: HMW
LayerCount: 2
Fore
SplineSet
382 305 m 2
 408 381 415 432 389 432 c 0
 359 432 289 326 251 173 c 1
 236 173 l 1
 284 325 320 470 443 470 c 0
 550 470 613 404 577 297 c 2
 497 62 l 2
 495 56 494 49 494 44 c 0
 494 33 500 25 513 25 c 0
 563 25 612 103 635 169 c 1
 655 163 l 1
 617 63 558 -10 447 -10 c 0
 360 -10 314 21 314 84 c 0
 314 99 316 111 319 122 c 2
 382 305 l 2
195 730 m 1
 130 730 l 1
 130 750 l 1
 390 750 l 1
 210 0 l 1
 20 0 l 1
 195 730 l 1
EndSplineSet
EndChar

StartChar: i
Encoding: 105 105 46
GlifName: i
Width: 424
VWidth: 1155
Flags: HMW
LayerCount: 2
Fore
SplineSet
145 650 m 0
 145 713 192 760 255 760 c 0
 318 760 365 713 365 650 c 0
 365 587 318 540 255 540 c 0
 192 540 145 587 145 650 c 0
399 163 m 1
 361 63 282 -10 171 -10 c 0
 94 -10 55 13 55 83 c 0
 55 88 55 99 57 105 c 2
 142 440 l 5
 65 440 l 5
 65 460 l 5
 337 460 l 5
 240 76 l 2
 239 70 238 63 238 58 c 0
 238 47 243 39 256 39 c 0
 300 39 356 103 379 169 c 1
 399 163 l 1
EndSplineSet
EndChar

StartChar: j
Encoding: 106 106 47
GlifName: j
Width: 347
VWidth: 1155
Flags: HMW
LayerCount: 2
Fore
SplineSet
147 650 m 0
 147 713 194 760 257 760 c 0
 320 760 367 713 367 650 c 0
 367 587 320 540 257 540 c 0
 194 540 147 587 147 650 c 0
-137 -218 m 5
 -125 -228 -94 -236 -62 -236 c 4
 38 -236 22 -100 50 20 c 6
 148 440 l 5
 58 440 l 5
 58 460 l 5
 343 460 l 5
 245 -12 l 6
 219 -137 73 -260 -57 -260 c 4
 -148 -260 -230 -203 -230 -136 c 4
 -230 -75 -178 -29 -118 -29 c 4
 -63 -29 -17 -70 -17 -117 c 4
 -17 -174 -66 -220 -120 -220 c 4
 -123 -220 -131 -220 -137 -218 c 5
EndSplineSet
EndChar

StartChar: k
Encoding: 107 107 48
GlifName: k
Width: 687
VWidth: 1155
Flags: HMW
LayerCount: 2
Fore
SplineSet
657 163 m 5
 619 63 550 -10 449 -10 c 4
 372 -10 316 13 316 83 c 4
 316 88 317 99 318 105 c 6
 325 140 l 6
 337 198 362 259 338 259 c 4
 317 259 293 224 284 190 c 5
 269 190 l 5
 296 272 325 294 396 294 c 4
 465 294 537 251 507 121 c 6
 495 56 l 6
 495 54 494 49 494 47 c 4
 494 36 501 31 514 31 c 4
 557 31 614 103 637 169 c 5
 657 163 l 5
278 323 m 5
 302 312 l 5
 305 282 300 261 332 261 c 4
 372 261 372 298 398 362 c 4
 426 430 475 470 535 470 c 4
 600 470 667 421 667 349 c 4
 667 294 626 249 571 249 c 4
 516 249 481 296 481 339 c 4
 481 387 521 426 569 426 c 4
 590 426 611 418 615 416 c 5
 603 433 571 450 533 450 c 4
 490 450 445 421 419 356 c 4
 392 288 392 242 332 242 c 4
 291 242 278 271 278 323 c 5
219 730 m 5
 134 730 l 5
 134 750 l 5
 414 750 l 5
 240 0 l 5
 50 0 l 5
 219 730 l 5
EndSplineSet
EndChar

StartChar: l
Encoding: 108 108 49
GlifName: l
Width: 414
VWidth: 1155
Flags: HMW
LayerCount: 2
Fore
SplineSet
389 163 m 5
 351 63 272 -10 161 -10 c 4
 84 -10 45 13 45 83 c 4
 45 88 46 99 47 105 c 6
 190 730 l 5
 101 730 l 5
 101 750 l 5
 384 750 l 5
 230 76 l 6
 229 70 228 63 228 58 c 4
 228 47 233 39 246 39 c 4
 290 39 346 103 369 169 c 5
 389 163 l 5
EndSplineSet
EndChar

StartChar: m
Encoding: 109 109 50
GlifName: m
Width: 971
VWidth: 1155
Flags: HMW
LayerCount: 2
Fore
SplineSet
673 305 m 6
 699 381 706 432 680 432 c 4
 650 432 580 326 542 173 c 5
 527 173 l 5
 565 315 616 470 734 470 c 4
 841 470 904 404 868 297 c 6
 788 62 l 6
 786 56 785 49 785 44 c 4
 785 33 791 25 804 25 c 4
 854 25 903 103 926 169 c 5
 946 163 l 5
 908 63 849 -10 738 -10 c 4
 651 -10 605 21 605 84 c 4
 605 99 607 111 610 122 c 6
 673 305 l 6
500 0 m 17
 310 0 l 1
 385 308 l 2
 404 387 420 432 394 432 c 0
 364 432 294 326 256 173 c 1
 241 173 l 1
 289 325 326 470 449 470 c 0
 556 470 602 417 578 319 c 2
 500 0 l 17
130 440 m 1
 65 440 l 1
 65 460 l 1
 325 460 l 1
 215 0 l 1
 25 0 l 1
 130 440 l 1
EndSplineSet
EndChar

StartChar: n
Encoding: 110 110 51
GlifName: n
Width: 685
VWidth: 1155
Flags: HMW
LayerCount: 2
Fore
SplineSet
130 440 m 5
 65 440 l 5
 65 460 l 5
 325 460 l 5
 215 0 l 5
 25 0 l 5
 130 440 l 5
387 305 m 6
 413 381 420 432 394 432 c 4
 364 432 294 326 256 173 c 5
 241 173 l 5
 289 325 325 470 448 470 c 4
 555 470 618 404 582 297 c 6
 502 62 l 6
 500 56 499 49 499 44 c 4
 499 33 505 25 518 25 c 4
 568 25 617 103 640 169 c 5
 660 163 l 5
 622 63 563 -10 452 -10 c 4
 365 -10 319 21 319 84 c 4
 319 99 321 111 324 122 c 6
 387 305 l 6
EndSplineSet
EndChar

StartChar: o
Encoding: 111 111 52
GlifName: o
Width: 592
VWidth: 1155
Flags: HMW
LayerCount: 2
Fore
SplineSet
239 -10 m 0
 138 -10 20 50 20 170 c 0
 20 360 177 470 338 470 c 0
 439 470 557 410 557 290 c 0
 557 100 400 -10 239 -10 c 0
239 11 m 0
 308 11 373 266 373 390 c 0
 373 434 362 449 338 449 c 0
 269 449 204 194 204 70 c 0
 204 26 215 11 239 11 c 0
EndSplineSet
EndChar

StartChar: p
Encoding: 112 112 53
GlifName: p
Width: 660
VWidth: 1155
Flags: HMW
LayerCount: 2
Fore
SplineSet
271 145 m 4
 271 92 286 58 307 58 c 4
 351 58 426 205 426 339 c 4
 426 373 412 400 391 400 c 4
 340 400 271 249 271 145 c 4
255 145 m 4
 255 253 330 469 471 469 c 4
 540 469 630 429 630 299 c 4
 630 99 473 -10 374 -10 c 4
 298 -10 255 53 255 145 c 4
-90 -230 m 5
 235 -230 l 5
 235 -250 l 5
 -90 -250 l 5
 -90 -230 l 5
134 440 m 5
 67 440 l 5
 67 460 l 5
 329 460 l 5
 290 294 l 5
 265 213 l 5
 259 152 l 5
 165 -250 l 5
 -25 -250 l 5
 134 440 l 5
EndSplineSet
EndChar

StartChar: q
Encoding: 113 113 54
GlifName: q
Width: 635
VWidth: 1155
Flags: HMW
LayerCount: 2
Fore
SplineSet
499 -230 m 5
 499 -250 l 5
 194 -250 l 5
 194 -230 l 5
 499 -230 l 5
429 -250 m 17
 259 -250 l 1
 360 182 l 1
 385 263 l 1
 391 324 l 1
 421 450 l 1
 595 470 l 1
 429 -250 l 17
379 314 m 0
 379 367 364 401 343 401 c 0
 299 401 224 254 224 120 c 0
 224 86 238 59 259 59 c 0
 310 59 379 210 379 314 c 0
395 314 m 0
 395 206 320 -10 179 -10 c 0
 110 -10 20 30 20 160 c 0
 20 360 177 470 276 470 c 0
 352 470 395 406 395 314 c 0
EndSplineSet
EndChar

StartChar: r
Encoding: 114 114 55
GlifName: r
Width: 567
VWidth: 1155
Flags: HMW
LayerCount: 2
Fore
SplineSet
587 339 m 0
 587 280 547 228 479 228 c 0
 416 228 370 271 370 333 c 0
 370 388 416 439 485 439 c 0
 488 439 490 439 493 439 c 1
 483 444 460 447 445 447 c 0
 350 447 283 271 259 173 c 1
 244 173 l 1
 268 295 323 470 455 470 c 0
 521 470 587 418 587 339 c 0
135 440 m 1
 65 440 l 1
 65 460 l 1
 325 460 l 1
 220 0 l 1
 30 0 l 1
 135 440 l 1
EndSplineSet
EndChar

StartChar: s
Encoding: 115 115 56
GlifName: s
Width: 522
VWidth: 1155
Flags: HMW
LayerCount: 2
Fore
SplineSet
400 427 m 1
 386 434 353 449 289 449 c 0
 216 449 202 422 202 396 c 0
 202 316 437 295 437 162 c 0
 437 68 337 -12 210 -12 c 4
 51 -12 0 60 0 115 c 0
 0 166 40 197 80 197 c 0
 115 197 159 171 159 121 c 0
 159 76 121 46 82 46 c 0
 61 46 56 54 52 55 c 1
 74 34 108 8 210 8 c 0
 280 8 324 37 324 68 c 0
 324 135 76 161 76 307 c 0
 76 406 186 469 279 469 c 4
 417 469 472 417 472 360 c 0
 472 319 442 288 402 288 c 0
 367 288 325 314 325 359 c 0
 325 399 349 429 382 429 c 0
 392 429 396 428 400 427 c 1
EndSplineSet
EndChar

StartChar: t
Encoding: 116 116 57
GlifName: t
Width: 425
VWidth: 1155
Flags: HMW
LayerCount: 2
Fore
SplineSet
60 460 m 1
 430 460 l 1
 430 440 l 1
 60 440 l 1
 60 460 l 1
398 163 m 1
 360 63 281 -10 170 -10 c 0
 93 -10 51 13 51 83 c 4
 51 88 52 99 54 105 c 2
 169 560 l 1
 358 560 l 1
 237 76 l 6
 236 70 235 63 235 58 c 0
 235 47 240 39 253 39 c 0
 297 39 355 103 378 169 c 1
 398 163 l 1
EndSplineSet
EndChar

StartChar: u
Encoding: 117 117 58
GlifName: u
Width: 714
VWidth: 1155
Flags: HMW
LayerCount: 2
Fore
SplineSet
327 460 m 1
 255 152 l 2
 237 73 222 28 248 28 c 0
 278 28 350 134 388 287 c 1
 403 287 l 1
 355 135 317 -10 194 -10 c 0
 97 -10 46 59 64 141 c 2
 131 440 l 1
 65 440 l 1
 65 460 l 1
 327 460 l 1
689 163 m 1
 651 63 572 -10 461 -10 c 4
 384 -10 343 13 343 83 c 4
 343 88 344 99 345 105 c 2
 426 460 l 1
 617 460 l 1
 528 76 l 6
 527 70 526 63 526 58 c 4
 526 47 531 39 544 39 c 4
 588 39 646 103 669 169 c 1
 689 163 l 1
EndSplineSet
EndChar

StartChar: v
Encoding: 118 118 59
GlifName: v
Width: 686
VWidth: 1155
Flags: HMW
LayerCount: 2
Fore
SplineSet
325 142 m 6
 312 63 300 24 356 24 c 4
 454 24 646 171 646 344 c 4
 646 346 646 347 646 350 c 5
 643 311 586 255 533 255 c 4
 473 255 427 307 427 362 c 4
 427 422 476 469 543 469 c 4
 616 469 666 415 666 344 c 4
 666 162 470 -10 307 -10 c 4
 180 -10 118 60 137 161 c 6
 178 384 l 6
 179 390 180 397 180 402 c 4
 180 413 174 421 161 421 c 4
 107 421 63 357 35 291 c 5
 15 297 l 5
 63 397 112 470 243 470 c 4
 330 470 359 440 359 387 c 4
 359 372 359 365 356 348 c 6
 325 142 l 6
EndSplineSet
Substitution2: "'ss04' Style Set 4 lookup 5-1" v.alt
EndChar

StartChar: w
Encoding: 119 119 60
GlifName: w
Width: 1009
VWidth: 1155
Flags: HMW
LayerCount: 2
Fore
SplineSet
288 161 m 2
 262 84 270 29 316 29 c 0
 374 29 431 134 469 287 c 1
 484 287 l 1
 446 135 410 -10 247 -10 c 0
 130 -10 62 43 95 141 c 2
 177 384 l 2
 179 390 180 397 180 402 c 0
 180 413 174 421 161 421 c 0
 107 421 63 357 35 291 c 1
 15 297 l 1
 63 397 112 470 243 470 c 0
 320 470 361 445 361 382 c 0
 361 367 358 355 356 348 c 2
 288 161 l 2
510 460 m 1
 700 460 l 1
 636 189 l 2
 616 105 620 25 694 25 c 0
 835 25 968 236 968 344 c 4
 968 345 968 347 968 350 c 5
 965 301 918 255 855 255 c 0
 785 255 749 307 749 362 c 0
 749 422 803 469 865 469 c 0
 918 469 989 435 989 344 c 0
 989 234 859 -10 654 -10 c 0
 555 -10 443 28 443 178 c 1
 510 460 l 1
EndSplineSet
EndChar

StartChar: x
Encoding: 120 120 61
GlifName: x
Width: 716
VWidth: 1155
Flags: HMW
LayerCount: 2
Fore
SplineSet
384 246 m 1
 444 344 501 470 610 470 c 0
 691 470 731 406 731 354 c 0
 731 298 691 254 633 254 c 0
 573 254 538 306 538 351 c 0
 538 398 578 446 629 446 c 0
 635 446 641 445 646 443 c 1
 633 448 619 451 607 451 c 0
 523 451 461 331 403 236 c 1
 384 246 l 1
347 214 m 1
 287 116 230 -10 121 -10 c 0
 40 -10 0 54 0 106 c 0
 0 162 40 206 98 206 c 0
 158 206 193 154 193 109 c 0
 193 62 153 14 102 14 c 0
 96 14 90 15 85 17 c 1
 98 12 112 9 124 9 c 0
 208 9 270 129 328 224 c 1
 347 214 l 1
660 109 m 5
 628 29 572 -10 480 -10 c 4
 383 -10 352 25 324 93 c 4
 290 176 245 335 219 407 c 4
 215 418 212 431 194 431 c 4
 163 431 128 386 111 340 c 5
 92 349 l 5
 123 429 173 472 275 472 c 4
 372 472 399 437 427 369 c 4
 462 282 500 151 535 54 c 4
 539 43 550 30 563 30 c 4
 586 30 625 71 642 117 c 5
 660 109 l 5
EndSplineSet
EndChar

StartChar: y
Encoding: 121 121 62
GlifName: y
Width: 711
VWidth: 1155
Flags: HMW
LayerCount: 2
Fore
SplineSet
360 -127 m 1
 267 29 196 322 169 394 c 0
 165 405 155 420 137 420 c 0
 111 420 76 394 57 338 c 1
 38 347 l 1
 71 437 149 470 231 470 c 0
 311 470 353 434 374 366 c 0
 402 276 435 120 500 23 c 1
 360 -127 l 1
175 -260 m 0
 58 -260 15 -176 15 -121 c 0
 15 -58 59 -5 117 -5 c 0
 172 -5 213 -41 213 -99 c 0
 213 -152 178 -193 123 -193 c 0
 81 -193 52 -165 40 -131 c 1
 40 -160 70 -240 173 -240 c 0
 335 -240 667 237 667 355 c 0
 667 357 667 358 667 361 c 1
 664 322 628 276 572 276 c 0
 512 276 475 328 475 373 c 0
 475 423 510 470 577 470 c 4
 648 470 691 417 691 356 c 0
 691 226 350 -260 175 -260 c 0
EndSplineSet
EndChar

StartChar: z
Encoding: 122 122 63
GlifName: z
Width: 531
VWidth: 1155
Flags: HMW
LayerCount: 2
Fore
SplineSet
33 190 m 1
 99 470 l 1
 153 440 213 431 289 431 c 0
 357 431 445 443 487 470 c 1
 506 450 l 1
 392 380 265 255 185 255 c 0
 141 255 103 268 77 288 c 1
 53 190 l 1
 33 190 l 1
20 20 m 1
 -20 10 l 1
 466 440 l 1
 506 450 l 1
 20 20 l 1
502 183 m 1
 487 152 465 126 424 126 c 0
 381 126 337 166 337 216 c 0
 337 271 384 307 429 307 c 0
 479 307 524 266 524 205 c 0
 524 135 449 -10 307 -10 c 0
 226 -10 183 39 117 39 c 0
 69 39 31 22 -1 -10 c 1
 -20 10 l 1
 84 70 187 175 257 175 c 0
 331 175 323 102 410 102 c 0
 470 102 499 143 502 183 c 1
EndSplineSet
EndChar

StartChar: comma
Encoding: 44 44 65
GlifName: comma
Width: 335
Flags: HMW
LayerCount: 2
Fore
SplineSet
40 109 m 0
 40 172 99 228 167 228 c 0
 236 228 297 177 297 84 c 4
 297 -74 118 -156 -32 -156 c 1
 -32 -136 l 1
 90 -136 269 -71 276 82 c 1
 254 30 200 -10 153 -10 c 0
 90 -10 40 46 40 109 c 0
EndSplineSet
EndChar

StartChar: exclam
Encoding: 33 33 67
GlifName: exclam
Width: 439
Flags: HMW
LayerCount: 2
Fore
SplineSet
448 659 m 4
 448 531 304 468 259 308 c 5
 239 308 l 5
 269 458 200 473 200 599 c 4
 200 685 272 758 341 758 c 4
 406 758 448 710 448 659 c 4
84 110 m 0
 84 176 138 230 204 230 c 0
 270 230 324 176 324 110 c 0
 324 44 270 -10 204 -10 c 0
 138 -10 84 44 84 110 c 0
EndSplineSet
EndChar

StartChar: quotesingle
Encoding: 39 39 70
GlifName: quotesingle
Width: 314
Flags: HMW
LayerCount: 2
Fore
SplineSet
356 639 m 0
 337 564 239 518 209 418 c 1
 189 418 l 1
 215 518 147 561 136 636 c 24
 135 643 135 653 135 659 c 0
 135 718 186 760 255 760 c 4
 314 760 359 718 359 669 c 0
 359 658 358 646 356 639 c 0
EndSplineSet
EndChar

StartChar: question
Encoding: 63 63 75
GlifName: question
Width: 620
Flags: HMW
LayerCount: 2
Fore
SplineSet
309 355 m 1
 292 279 l 1
 272 279 l 1
 292 369 l 1
 409 400 454 547 454 650 c 0
 454 704 435 739 386 739 c 0
 282 739 215 674 195 636 c 1
 209 647 234 660 257 660 c 0
 306 660 354 620 354 565 c 0
 354 505 302 459 247 459 c 4
 177 459 150 510 150 571 c 0
 150 653 264 760 396 760 c 4
 507 760 665 720 665 600 c 4
 665 425 464 363 309 355 c 1
EndSplineSet
Refer: 1 46 N 1 0 0 1 149 0 2
EndChar

StartChar: parenleft
Encoding: 40 40 76
GlifName: parenleft
Width: 385
Flags: HMW
LayerCount: 2
Fore
SplineSet
295 -153 m 1
 286 -170 l 1
 173 -120 85 12 85 185 c 0
 85 478 313 720 506 800 c 1
 515 783 l 1
 361 663 264 227 264 5 c 0
 264 -67 279 -123 295 -153 c 1
EndSplineSet
EndChar

StartChar: asterisk
Encoding: 42 42 78
GlifName: asterisk
Width: 635
VWidth: 1155
Flags: HMW
LayerCount: 2
Fore
SplineSet
283 652 m 0
 349 604 303 502 388 457 c 1
 378 442 l 1
 283 497 207 436 138 467 c 0
 79 494 77 566 108 617 c 0
 142 671 225 694 283 652 c 0
131 433 m 0
 205 448 282 404 377 459 c 1
 387 442 l 1
 292 387 273 307 210 255 c 0
 152 207 85 222 54 271 c 0
 19 325 53 417 131 433 c 0
231 227 m 0
 245 304 359 340 374 450 c 1
 392 450 l 1
 372 320 449 292 449 217 c 0
 449 160 388 108 323 108 c 0
 268 108 215 142 231 227 c 0
482 248 m 0
 416 296 462 398 377 443 c 1
 387 458 l 1
 482 403 558 464 627 433 c 0
 686 406 688 334 657 283 c 0
 623 229 540 206 482 248 c 0
634 467 m 0
 560 452 483 496 388 441 c 1
 378 458 l 1
 473 513 492 593 555 645 c 0
 613 693 680 678 711 629 c 0
 746 575 712 483 634 467 c 0
534 673 m 0
 520 596 406 560 391 450 c 1
 373 450 l 1
 393 580 316 608 316 683 c 0
 316 740 377 792 442 792 c 0
 497 792 550 758 534 673 c 0
EndSplineSet
EndChar

StartChar: at
Encoding: 64 64 79
GlifName: at
Width: 1010
VWidth: 1155
Flags: HMW
LayerCount: 2
Fore
SplineSet
555 356 m 4
 555 194 494 70 364 70 c 4
 265 70 204 126 204 230 c 4
 204 380 308 529 457 529 c 4
 548 529 555 438 555 356 c 4
539 346 m 4
 539 388 539 463 517 463 c 4
 484 463 425 364 425 240 c 4
 425 173 440 137 464 137 c 4
 495 137 539 218 539 346 c 4
520 210 m 2
 592 520 l 1
 802 520 l 1
 730 210 l 2
 719 161 704 107 741 107 c 0
 834 107 935 247 935 401 c 0
 935 578 828 770 584 770 c 0
 305 770 75 513 75 211 c 0
 75 -86 245 -194 419 -194 c 0
 583 -194 680 -147 770 -49 c 1
 785 -64 l 1
 701 -162 582 -214 419 -214 c 0
 236 -214 55 -102 55 211 c 0
 55 524 292 790 585 790 c 0
 838 790 955 584 955 401 c 0
 955 231 862 68 661 68 c 0
 512 68 506 148 520 210 c 2
EndSplineSet
EndChar

StartChar: dollar
Encoding: 36 36 80
GlifName: dollar
Width: 645
Flags: HMW
LayerCount: 2
Fore
SplineSet
395 830 m 1
 420 830 l 1
 210 -80 l 1
 185 -80 l 1
 395 830 l 1
465 830 m 1
 490 830 l 1
 280 -80 l 1
 255 -80 l 1
 465 830 l 1
300 635 m 0
 300 480 615 540 615 280 c 0
 615 90 416 -15 275 -15 c 0
 139 -15 30 70 30 180 c 4
 30 236 66 287 130 287 c 0
 180 287 224 250 224 196 c 0
 224 126 176 96 122 96 c 0
 106 96 85 99 71 105 c 1
 99 67 166 6 275 6 c 0
 381 6 445 66 445 135 c 0
 445 310 130 225 130 485 c 0
 130 655 316 760 447 760 c 0
 555 760 655 691 655 600 c 0
 655 554 622 502 558 502 c 0
 508 502 461 534 461 595 c 0
 461 655 514 684 558 684 c 0
 577 684 601 676 607 671 c 1
 585 700 531 737 447 737 c 0
 341 737 300 684 300 635 c 0
EndSplineSet
EndChar

StartChar: numbersign
Encoding: 35 35 81
GlifName: numbersign
Width: 630
Flags: HMW
LayerCount: 2
Fore
SplineSet
66 265 m 1
 606 265 l 1
 606 245 l 1
 66 245 l 1
 66 265 l 1
116 520 m 1
 656 520 l 1
 656 500 l 1
 116 500 l 1
 116 520 l 1
540 754 m 5
 561 755 l 1
 386 -5 l 1
 365 -6 l 5
 540 754 l 5
341 755 m 1
 362 755 l 1
 187 -5 l 1
 166 -5 l 1
 341 755 l 1
EndSplineSet
EndChar

StartChar: slash
Encoding: 47 47 82
GlifName: slash
Width: 520
Flags: HMW
LayerCount: 2
Fore
SplineSet
595 780 m 1
 620 780 l 1
 -5 -150 l 1
 -30 -150 l 1
 595 780 l 1
EndSplineSet
EndChar

StartChar: percent
Encoding: 37 37 83
GlifName: percent
Width: 1000
Flags: HMW
LayerCount: 2
Fore
SplineSet
730 -10 m 4
 617 -10 530 37 530 140 c 4
 530 303 667 430 820 430 c 4
 933 430 1020 383 1020 280 c 4
 1020 117 883 -10 730 -10 c 4
830 410 m 4
 786 410 700 137 700 55 c 4
 700 33 706 10 720 10 c 4
 764 10 845 288 845 370 c 4
 845 392 844 410 830 410 c 4
868 750 m 5
 895 750 l 5
 220 0 l 5
 193 0 l 5
 868 750 l 5
275 320 m 4
 162 320 75 367 75 470 c 4
 75 633 212 760 365 760 c 4
 478 760 565 713 565 610 c 4
 565 447 428 320 275 320 c 4
375 740 m 4
 331 740 245 467 245 385 c 4
 245 363 251 340 265 340 c 4
 309 340 390 618 390 700 c 4
 390 722 389 740 375 740 c 4
EndSplineSet
EndChar

StartChar: hyphen
Encoding: 45 45 85
GlifName: hyphen
Width: 360
Flags: HMW
LayerCount: 2
Fore
SplineSet
83 285 m 5
 323 285 l 5
 323 265 l 5
 83 265 l 5
 83 285 l 5
EndSplineSet
EndChar

StartChar: plus
Encoding: 43 43 87
GlifName: plus
Width: 530
Flags: HMW
LayerCount: 2
Fore
SplineSet
239 110 m 1
 334 520 l 1
 356 520 l 1
 261 110 l 1
 239 110 l 1
93 326 m 1
 503 326 l 1
 503 306 l 1
 93 306 l 1
 93 326 l 1
EndSplineSet
EndChar

StartChar: less
Encoding: 60 60 89
GlifName: less
Width: 560
Flags: HMW
LayerCount: 2
Fore
SplineSet
110 380 m 1
 110 400 l 1
 590 600 l 1
 590 580 l 1
 110 380 l 1
110 375 m 1
 110 395 l 1
 500 195 l 1
 500 175 l 1
 110 375 l 1
EndSplineSet
EndChar

StartChar: backslash
Encoding: 92 92 91
GlifName: backslash
Width: 520
Flags: HMW
LayerCount: 2
Fore
SplineSet
203 780 m 1
 410 -150 l 1
 387 -150 l 1
 180 780 l 1
 203 780 l 1
EndSplineSet
EndChar

StartChar: bracketleft
Encoding: 91 91 92
GlifName: bracketleft
Width: 405
Flags: HMW
LayerCount: 2
Fore
SplineSet
200 780 m 1
 510 780 l 1
 510 760 l 1
 385 760 l 1
 185 -130 l 1
 300 -130 l 1
 300 -150 l 1
 -10 -150 l 1
 200 780 l 1
EndSplineSet
EndChar

StartChar: braceleft
Encoding: 123 123 93
GlifName: braceleft
Width: 372
VWidth: 1155
Flags: HMW
LayerCount: 2
Fore
SplineSet
482 780 m 1
 482 760 l 1
 420 760 350 710 350 617 c 0
 350 561 364 531 364 471 c 0
 364 358 189 320 85 310 c 1
 85 325 l 1
 115 335 180 356 180 407 c 0
 180 470 152 484 152 571 c 0
 152 710 317 780 482 780 c 1
272 -150 m 1
 107 -150 5 -119 5 -10 c 0
 5 117 135 182 135 245 c 0
 135 286 115 295 85 305 c 1
 85 320 l 1
 189 310 292 293 292 200 c 0
 292 100 198 30 198 -46 c 0
 198 -89 210 -130 272 -130 c 1
 272 -150 l 1
EndSplineSet
EndChar

StartChar: bar
Encoding: 124 124 96
GlifName: bar
Width: 230
VWidth: 1155
Flags: HMW
LayerCount: 2
Fore
SplineSet
246 780 m 5
 265 780 l 1
 25 -250 l 1
 6 -250 l 5
 246 780 l 5
EndSplineSet
EndChar

StartChar: cent
Encoding: 162 162 98
GlifName: cent
Width: 534
VWidth: 1155
Flags: HMW
LayerCount: 2
Fore
SplineSet
385 555 m 5
 215 -85 l 5
 195 -85 l 5
 365 555 l 5
 385 555 l 5
EndSplineSet
Refer: 40 99 N 1 0 0 1 0 0 2
EndChar

StartChar: sterling
Encoding: 163 163 99
GlifName: sterling
Width: 717
VWidth: 1155
Flags: HMW
LayerCount: 2
Fore
SplineSet
692 277 m 1
 672 132 581 -30 442 -30 c 0
 305 -30 210 30 147 30 c 0
 106 30 72 10 52 -20 c 1
 41 -20 l 1
 81 94 239 217 342 217 c 0
 432 217 452 183 528 183 c 0
 591 183 652 195 672 277 c 1
 692 277 l 1
615 405 m 1
 615 385 l 1
 65 385 l 1
 65 405 l 1
 615 405 l 1
158 520 m 0
 158 670 344 760 525 760 c 0
 687 760 747 678 747 576 c 0
 747 505 693 454 633 454 c 0
 568 454 516 500 516 570 c 0
 516 635 574 675 633 675 c 0
 684 675 713 641 727 620 c 5
 699 704 639 734 565 734 c 0
 466 734 409 654 409 580 c 0
 409 521 430 505 430 430 c 0
 430 220 49 195 52 -20 c 1
 32 -20 l 1
 23 119 189 187 189 311 c 0
 189 375 158 435 158 520 c 0
EndSplineSet
EndChar

StartChar: section
Encoding: 167 167 101
GlifName: section
Width: 474
VWidth: 1155
Flags: HMW
LayerCount: 2
Fore
SplineSet
251 644 m 0
 251 538 488 563 488 410 c 0
 488 328 405 300 351 264 c 1
 336 270 l 1
 360 292 372 303 372 343 c 0
 372 424 138 391 138 563 c 0
 138 667 263 760 378 760 c 0
 476 760 545 702 545 636 c 0
 545 575 507 540 452 540 c 0
 402 540 368 570 368 626 c 0
 368 668 406 701 445 701 c 0
 486 701 497 691 511 680 c 5
 501 694 475 740 378 740 c 0
 305 740 251 701 251 644 c 0
440 192 m 0
 440 88 310 -10 175 -10 c 0
 87 -10 -19 28 -19 124 c 0
 -19 175 19 216 79 216 c 0
 129 216 165 189 165 143 c 0
 165 91 127 55 78 55 c 0
 37 55 18 77 4 92 c 1
 35 23 123 7 175 7 c 0
 278 7 330 74 330 101 c 0
 330 187 69 182 69 325 c 0
 69 397 158 474 212 490 c 1
 231 490 l 1
 217 488 185 457 185 427 c 0
 185 346 440 334 440 192 c 0
EndSplineSet
EndChar

StartChar: brokenbar
Encoding: 166 166 102
GlifName: brokenbar
Width: 220
VWidth: 1155
Flags: HMW
LayerCount: 2
Fore
SplineSet
100 166 m 1
 118 166 l 1
 22 -250 l 1
 4 -250 l 1
 100 166 l 1
242 780 m 5
 260 780 l 1
 174 409 l 1
 156 409 l 5
 242 780 l 5
EndSplineSet
EndChar

StartChar: asciitilde
Encoding: 126 126 104
GlifName: asciitilde
Width: 688
VWidth: 1155
Flags: HMW
LayerCount: 2
Fore
SplineSet
263 407 m 0
 210 407 185 385 170 343 c 1
 150 343 l 1
 180 458 220 540 319 540 c 4
 429 540 439 446 535 446 c 0
 598 446 623 468 638 510 c 1
 658 510 l 1
 628 395 588 313 489 313 c 0
 362 313 366 407 263 407 c 0
EndSplineSet
EndChar

StartChar: copyright
Encoding: 169 169 105
GlifName: copyright
Width: 870
Flags: HMW
LayerCount: 2
Fore
SplineSet
85 305 m 0
 85 538 307 760 540 760 c 0
 733 760 875 638 875 445 c 0
 875 212 653 -10 420 -10 c 0
 227 -10 85 112 85 305 c 0
105 305 m 0
 105 124 239 10 420 10 c 0
 641 10 855 224 855 445 c 0
 855 626 721 740 540 740 c 0
 319 740 105 526 105 305 c 0
EndSplineSet
Refer: 14 67 S 0.6 0 0 0.6 212 150 2
EndChar

StartChar: registered
Encoding: 174 174 106
GlifName: registered
Width: 870
Flags: HMW
LayerCount: 2
Fore
SplineSet
85 305 m 0
 85 538 307 760 540 760 c 0
 733 760 875 638 875 445 c 0
 875 212 653 -10 420 -10 c 0
 227 -10 85 112 85 305 c 0
105 305 m 0
 105 124 239 10 420 10 c 0
 641 10 855 224 855 445 c 0
 855 626 721 740 540 740 c 0
 319 740 105 526 105 305 c 0
EndSplineSet
Refer: 29 82 S 0.6 0 0 0.6 228 148 2
EndChar

StartChar: logicalnot
Encoding: 172 172 107
GlifName: logicalnot
Width: 486
Flags: HMW
LayerCount: 2
Fore
SplineSet
492 595 m 5
 150 595 l 1
 150 615 l 1
 516 615 l 1
 471 413 l 1
 452 413 l 5
 492 595 l 5
EndSplineSet
EndChar

StartChar: guillemotleft
Encoding: 171 171 108
GlifName: guillemotleft
Width: 695
Flags: HMW
LayerCount: 2
Fore
SplineSet
581 388 m 5
 645 155 l 1
 635 145 l 1
 355 375 l 1
 355 400 l 1
 745 630 l 1
 755 620 l 1
 581 388 l 5
301 388 m 5
 365 155 l 1
 355 145 l 1
 75 375 l 1
 75 400 l 1
 465 630 l 1
 475 620 l 1
 301 388 l 5
EndSplineSet
EndChar

StartChar: mu
Encoding: 181 181 111
GlifName: mu
Width: 714
VWidth: 1155
Flags: HMW
LayerCount: 2
Fore
SplineSet
30 -91 m 2
 10 -179 17 -238 100 -245 c 1
 100 -244 l 1
 73 -221 73 -194 73 -176 c 0
 73 -143 99 -123 132 -123 c 0
 165 -123 191 -152 191 -190 c 0
 191 -229 170 -260 97 -260 c 0
 7 -260 -12 -186 10 -91 c 2
 105 321 l 1
 125 321 l 1
 30 -91 l 2
EndSplineSet
Refer: 58 117 N 1 0 0 1 0 0 2
EndChar

StartChar: asciicircum
Encoding: 94 94 113
GlifName: asciicircum
Width: 545
Flags: HMW
LayerCount: 2
Fore
SplineSet
408 723 m 5
 220 620 l 1
 210 630 l 1
 380 770 l 1
 445 770 l 1
 555 630 l 1
 545 620 l 1
 408 723 l 5
EndSplineSet
EndChar

StartChar: degree
Encoding: 176 176 115
GlifName: degree
Width: 320
Flags: HMW
LayerCount: 2
Fore
SplineSet
194 680 m 4
 194 746 248 800 314 800 c 4
 380 800 434 746 434 680 c 4
 434 614 380 560 314 560 c 4
 248 560 194 614 194 680 c 4
249 680 m 4
 249 643 277 615 314 615 c 4
 351 615 379 643 379 680 c 4
 379 717 351 745 314 745 c 4
 277 745 249 717 249 680 c 4
EndSplineSet
EndChar

StartChar: onequarter
Encoding: 188 188 119
GlifName: onequarter
Width: 641
Flags: HMW
LayerCount: 2
Fore
SplineSet
619 650 m 5
 636 650 l 5
 0 -100 l 5
 -17 -100 l 5
 619 650 l 5
EndSplineSet
Refer: 6 52 N 0.6 0 0 0.6 240 -103 2
Refer: 3 49 N 0.6 0 0 0.6 102 356 2
EndChar

StartChar: onehalf
Encoding: 189 189 120
GlifName: onehalf
Width: 670
Flags: HMW
LayerCount: 2
Fore
SplineSet
619 650 m 1
 636 650 l 1
 0 -100 l 1
 -17 -100 l 1
 619 650 l 1
EndSplineSet
Refer: 4 50 N 0.6 0 0 0.6 341 -101 2
Refer: 3 49 S 0.6 0 0 0.6 102 356 2
EndChar

StartChar: threequarters
Encoding: 190 190 121
GlifName: threequarters
Width: 701
Flags: HMW
LayerCount: 2
Fore
SplineSet
679 650 m 1
 696 650 l 1
 60 -100 l 1
 43 -100 l 1
 679 650 l 1
EndSplineSet
Refer: 5 51 N 0.6 0 0 0.6 85 354 2
Refer: 6 52 N 0.6 0 0 0.6 300 -103 2
EndChar

StartChar: grave
Encoding: 96 96 123
GlifName: grave
Width: 415
Flags: HMW
LayerCount: 2
Fore
SplineSet
284 680 m 6
 235 671 189 706 189 755 c 4
 189 804 244 849 294 828 c 6
 502 740 l 5
 499 720 l 5
 284 680 l 6
EndSplineSet
EndChar

StartChar: acute
Encoding: 180 180 124
GlifName: acute
Width: 415
Flags: HMW
LayerCount: 2
Fore
SplineSet
445 670 m 2
 230 710 l 1
 227 730 l 1
 435 818 l 2
 485 839 540 794 540 745 c 0
 540 696 494 661 445 670 c 2
EndSplineSet
EndChar

StartChar: multiply
Encoding: 215 215 127
GlifName: multiply
Width: 530
Flags: HMW
LayerCount: 2
Fore
SplineSet
403 163 m 1
 178 453 l 1
 192 467 l 1
 417 177 l 1
 403 163 l 1
112 178 m 1
 467 468 l 1
 481 454 l 5
 126 164 l 5
 112 178 l 1
EndSplineSet
EndChar

StartChar: cedilla
Encoding: 184 184 128
GlifName: cedilla
Width: 550
Flags: HMW
LayerCount: 2
Fore
SplineSet
237 -79 m 1
 357 41 l 1
 385 41 l 1
 265 -79 l 1
 237 -79 l 1
237 -79 m 1
 287 -39 l 1
 368 -39 454 -50 454 -110 c 4
 454 -190 332 -220 201 -220 c 1
 201 -200 l 1
 260 -200 299 -174 299 -130 c 4
 299 -97 282 -79 237 -79 c 1
EndSplineSet
EndChar

StartChar: ring
Encoding: 730 730 271
GlifName: ring
Width: 320
VWidth: 0
Flags: HMW
LayerCount: 2
Fore
SplineSet
165 680 m 0
 165 731 209 770 280 770 c 0
 351 770 395 731 395 680 c 0
 395 629 351 590 280 590 c 0
 209 590 165 629 165 680 c 0
248 635 m 0
 248 623 248 610 265 610 c 0
 292 610 312 693 312 725 c 0
 312 737 312 750 295 750 c 0
 268 750 248 667 248 635 c 0
EndSplineSet
EndChar

StartChar: tilde
Encoding: 732 732 272
GlifName: tilde
Width: 448
VWidth: 0
Flags: HMW
LayerCount: 2
Fore
SplineSet
233 639 m 0
 210 639 185 632 165 600 c 1
 145 600 l 1
 165 685 200 757 279 757 c 4
 349 757 389 678 435 678 c 0
 458 678 483 685 503 717 c 1
 523 717 l 1
 503 622 478 560 399 560 c 0
 322 560 286 639 233 639 c 0
EndSplineSet
EndChar

StartChar: AE
Encoding: 198 198 274
GlifName: A_E_
Width: 1060
Flags: HMW
LayerCount: 2
Fore
SplineSet
749 750 m 1
 1154 750 l 1
 1106 545 l 1
 1086 545 l 1
 1081 652 1026 730 909 730 c 2
 749 730 l 1
 749 750 l 1
778 378 m 2
 717 378 l 1
 717 398 l 1
 778 398 l 2
 835 398 896 456 941 523 c 1
 961 523 l 1
 897 248 l 1
 877 248 l 1
 862 315 835 378 778 378 c 2
990 0 m 1
 400 0 l 1
 400 20 l 1
 735 20 l 2
 872 20 963 98 1022 225 c 1
 1042 225 l 1
 990 0 l 1
659 750 m 1
 874 750 l 1
 700 0 l 1
 485 0 l 1
 659 750 l 1
255 255 m 1
 555 255 l 1
 555 235 l 1
 255 235 l 1
 255 255 l 1
645 750 m 1
 670 750 l 1
 75 0 l 1
 45 0 l 1
 645 750 l 1
-25 20 m 1
 195 20 l 1
 195 0 l 1
 -25 0 l 1
 -25 20 l 1
EndSplineSet
EndChar

StartChar: ae
Encoding: 230 230 277
GlifName: ae
Width: 913
VWidth: 1155
Flags: HMW
LayerCount: 2
Fore
SplineSet
274 261 m 2
 368 261 l 1
 368 241 l 1
 334 241 l 2
 278 241 213 160 213 68 c 0
 213 21 225 10 240 10 c 0
 287 10 316 83 338 181 c 2
 366 305 l 2
 380 369 373 449 303 449 c 0
 279 449 254 443 240 438 c 1
 268 435 324 430 324 368 c 0
 324 318 280 271 215 271 c 0
 145 271 113 300 113 346 c 0
 113 408 202 468 313 468 c 0
 443 468 542 436 526 305 c 1
 493 181 l 1
 470 57 321 -10 190 -10 c 0
 91 -10 18 19 18 93 c 0
 18 187 112 261 274 261 c 2
733 382 m 0
 733 419 727 452 706 452 c 0
 667 452 589 284 589 120 c 0
 589 56 605 25 654 25 c 0
 707 25 777 73 835 143 c 1
 854 143 l 1
 805 66 715 -10 574 -10 c 0
 493 -10 415 40 415 160 c 1
 435 155 l 1
 437 345 566 470 726 470 c 4
 808 470 909 444 909 362 c 0
 909 202 611 192 580 192 c 1
 580 212 l 1
 609 212 733 258 733 382 c 0
EndSplineSet
EndChar

StartChar: perthousand
Encoding: 8240 8240 285
GlifName: perthousand
Width: 1520
Flags: HMW
LayerCount: 2
Fore
SplineSet
1250 -10 m 4
 1137 -10 1050 37 1050 140 c 4
 1050 303 1187 430 1340 430 c 4
 1453 430 1540 383 1540 280 c 4
 1540 117 1403 -10 1250 -10 c 4
1350 410 m 4
 1306 410 1220 137 1220 55 c 4
 1220 33 1226 10 1240 10 c 4
 1284 10 1365 288 1365 370 c 4
 1365 392 1364 410 1350 410 c 4
730 -10 m 4
 617 -10 530 37 530 140 c 4
 530 303 667 430 820 430 c 4
 933 430 1020 383 1020 280 c 4
 1020 117 883 -10 730 -10 c 4
830 410 m 4
 786 410 700 137 700 55 c 4
 700 33 706 10 720 10 c 4
 764 10 845 288 845 370 c 4
 845 392 844 410 830 410 c 4
868 750 m 5
 895 750 l 5
 220 0 l 5
 193 0 l 5
 868 750 l 5
275 320 m 4
 162 320 75 367 75 470 c 4
 75 633 212 760 365 760 c 4
 478 760 565 713 565 610 c 4
 565 447 428 320 275 320 c 4
375 740 m 4
 331 740 245 467 245 385 c 4
 245 363 251 340 265 340 c 4
 309 340 390 618 390 700 c 4
 390 722 389 740 375 740 c 4
EndSplineSet
EndChar

StartChar: uni2031
Encoding: 8241 8241 286
GlifName: uni2031
Width: 2040
Flags: HMW
LayerCount: 2
Fore
SplineSet
1770 -10 m 0
 1657 -10 1570 37 1570 140 c 0
 1570 303 1707 430 1860 430 c 0
 1973 430 2060 383 2060 280 c 0
 2060 117 1923 -10 1770 -10 c 0
1870 410 m 0
 1826 410 1740 137 1740 55 c 0
 1740 33 1746 10 1760 10 c 0
 1804 10 1885 288 1885 370 c 0
 1885 392 1884 410 1870 410 c 0
1250 -10 m 0
 1137 -10 1050 37 1050 140 c 0
 1050 303 1187 430 1340 430 c 0
 1453 430 1540 383 1540 280 c 0
 1540 117 1403 -10 1250 -10 c 0
1350 410 m 0
 1306 410 1220 137 1220 55 c 0
 1220 33 1226 10 1240 10 c 0
 1284 10 1365 288 1365 370 c 0
 1365 392 1364 410 1350 410 c 0
730 -10 m 0
 617 -10 530 37 530 140 c 0
 530 303 667 430 820 430 c 0
 933 430 1020 383 1020 280 c 0
 1020 117 883 -10 730 -10 c 0
830 410 m 0
 786 410 700 137 700 55 c 0
 700 33 706 10 720 10 c 0
 764 10 845 288 845 370 c 0
 845 392 844 410 830 410 c 0
868 750 m 1
 895 750 l 1
 220 0 l 1
 193 0 l 1
 868 750 l 1
275 320 m 0
 162 320 75 367 75 470 c 0
 75 633 212 760 365 760 c 0
 478 760 565 713 565 610 c 0
 565 447 428 320 275 320 c 0
375 740 m 0
 331 740 245 467 245 385 c 0
 245 363 251 340 265 340 c 0
 309 340 390 618 390 700 c 0
 390 722 389 740 375 740 c 0
EndSplineSet
EndChar

StartChar: uniFB00
Encoding: 64256 64256 290
GlifName: uniF_B_00
Width: 834
VWidth: 1155
Flags: HMW
LayerCount: 2
Fore
SplineSet
86 460 m 1
 836 460 l 1
 836 440 l 1
 86 440 l 1
 86 460 l 1
913 719 m 1
 901 726 872 738 840 738 c 0
 770 738 727 662 706 540 c 2
 619 38 l 2
 585 -156 451 -210 321 -210 c 0
 210 -210 144 -143 144 -81 c 0
 144 -20 180 21 240 21 c 0
 295 21 347 -13 347 -73 c 0
 347 -133 300 -172 251 -172 c 0
 241 -172 227 -169 225 -169 c 1
 237 -176 266 -188 298 -188 c 0
 368 -188 411 -112 432 10 c 2
 519 512 l 2
 553 706 687 760 817 760 c 0
 928 760 994 693 994 631 c 0
 994 570 958 529 898 529 c 0
 843 529 791 563 791 623 c 0
 791 683 838 722 887 722 c 0
 895 722 906 720 913 719 c 1
564 669 m 1
 552 676 523 688 491 688 c 0
 421 688 387 662 366 540 c 2
 270 -12 l 2
 236 -206 102 -260 -28 -260 c 0
 -139 -260 -205 -193 -205 -131 c 0
 -205 -70 -169 -29 -109 -29 c 0
 -54 -29 -2 -63 -2 -123 c 0
 -2 -183 -49 -222 -98 -222 c 0
 -108 -222 -122 -219 -124 -219 c 1
 -112 -226 -83 -238 -51 -238 c 0
 19 -238 62 -162 83 -40 c 2
 170 462 l 2
 204 656 338 710 468 710 c 0
 579 710 645 643 645 581 c 0
 645 520 609 479 549 479 c 0
 494 479 442 513 442 573 c 0
 442 633 489 672 538 672 c 0
 546 672 557 671 564 669 c 1
EndSplineSet
Ligature2: "'liga' Standard Ligatures lookup 0-1" f f
LCarets2: 1 0
EndChar

StartChar: uniFB01
Encoding: 64257 64257 291
GlifName: uniF_B_01
Width: 784
VWidth: 1155
Flags: HMW
LayerCount: 2
Fore
SplineSet
764 163 m 1
 726 63 647 -10 536 -10 c 0
 459 -10 420 13 420 83 c 0
 420 88 420 99 422 105 c 2
 507 440 l 1
 86 440 l 1
 86 460 l 1
 702 460 l 1
 605 76 l 2
 604 70 603 63 603 58 c 0
 603 47 608 39 621 39 c 0
 665 39 721 103 744 169 c 1
 764 163 l 1
623 719 m 1
 611 726 582 738 540 738 c 0
 460 738 387 662 366 540 c 2
 270 -12 l 2
 236 -206 102 -260 -28 -260 c 0
 -139 -260 -205 -193 -205 -131 c 0
 -205 -70 -169 -29 -109 -29 c 0
 -54 -29 -2 -63 -2 -123 c 0
 -2 -183 -49 -222 -98 -222 c 0
 -108 -222 -122 -219 -124 -219 c 1
 -112 -226 -83 -238 -51 -238 c 0
 19 -238 62 -162 83 -40 c 2
 179 512 l 2
 213 706 367 760 517 760 c 0
 648 760 704 693 704 631 c 0
 704 570 668 529 608 529 c 0
 553 529 501 563 501 623 c 0
 501 683 548 722 597 722 c 0
 604 722 618 720 623 719 c 1
EndSplineSet
Ligature2: "'liga' Standard Ligatures lookup 0-1" f i
LCarets2: 1 0
EndChar

StartChar: uniFB02
Encoding: 64258 64258 292
GlifName: uniF_B_02
Width: 839
VWidth: 1155
Flags: HMW
LayerCount: 2
Fore
SplineSet
819 163 m 1
 781 63 702 -10 591 -10 c 0
 514 -10 475 13 475 83 c 0
 475 88 476 99 477 105 c 2
 620 730 l 1
 819 770 l 1
 660 76 l 2
 659 70 658 63 658 58 c 0
 658 47 663 39 676 39 c 0
 720 39 776 103 799 169 c 1
 819 163 l 1
86 460 m 1
 496 460 l 1
 496 440 l 1
 86 440 l 1
 86 460 l 1
603 719 m 1
 591 726 552 738 520 738 c 0
 450 738 387 662 366 540 c 2
 270 -12 l 2
 236 -206 102 -260 -28 -260 c 0
 -139 -260 -205 -193 -205 -131 c 0
 -205 -70 -169 -29 -109 -29 c 0
 -54 -29 -2 -63 -2 -123 c 0
 -2 -183 -49 -222 -98 -222 c 0
 -108 -222 -122 -219 -124 -219 c 1
 -112 -226 -83 -238 -51 -238 c 0
 19 -238 62 -162 83 -40 c 2
 179 512 l 2
 214 716 367 760 507 760 c 0
 618 760 684 693 684 631 c 0
 684 570 648 529 588 529 c 0
 533 529 481 563 481 623 c 0
 481 683 528 722 577 722 c 0
 584 722 598 720 603 719 c 1
EndSplineSet
Ligature2: "'liga' Standard Ligatures lookup 0-1" f l
LCarets2: 1 0
EndChar

StartChar: uniFB03
Encoding: 64259 64259 293
GlifName: uniF_B_03
Width: 1124
VWidth: 1155
Flags: HMW
LayerCount: 2
Fore
SplineSet
1104 163 m 1
 1066 63 987 -10 876 -10 c 0
 799 -10 760 13 760 83 c 0
 760 88 760 99 762 105 c 2
 847 440 l 1
 86 440 l 1
 86 460 l 1
 1042 460 l 1
 945 76 l 2
 944 70 943 63 943 58 c 0
 943 47 948 39 961 39 c 0
 1005 39 1061 103 1084 169 c 1
 1104 163 l 1
963 719 m 5
 951 726 922 738 880 738 c 0
 800 738 727 662 706 540 c 2
 619 38 l 2
 585 -156 451 -210 321 -210 c 0
 210 -210 144 -143 144 -81 c 0
 144 -20 180 21 240 21 c 0
 295 21 347 -13 347 -73 c 0
 347 -133 300 -172 251 -172 c 0
 241 -172 227 -169 225 -169 c 1
 237 -176 266 -188 298 -188 c 0
 368 -188 411 -112 432 10 c 2
 519 512 l 2
 553 706 707 760 857 760 c 0
 988 760 1044 693 1044 631 c 0
 1044 570 1008 529 948 529 c 0
 893 529 841 563 841 623 c 0
 841 683 888 722 937 722 c 0
 944 722 958 720 963 719 c 5
564 669 m 1
 552 676 523 688 491 688 c 0
 421 688 387 662 366 540 c 2
 270 -12 l 2
 236 -206 102 -260 -28 -260 c 0
 -139 -260 -205 -193 -205 -131 c 0
 -205 -70 -169 -29 -109 -29 c 0
 -54 -29 -2 -63 -2 -123 c 0
 -2 -183 -49 -222 -98 -222 c 0
 -108 -222 -122 -219 -124 -219 c 1
 -112 -226 -83 -238 -51 -238 c 0
 19 -238 62 -162 83 -40 c 2
 170 462 l 2
 204 656 338 710 468 710 c 0
 579 710 645 643 645 581 c 0
 645 520 609 479 549 479 c 0
 494 479 442 513 442 573 c 0
 442 633 489 672 538 672 c 0
 547 672 557 670 564 669 c 1
EndSplineSet
Ligature2: "'liga' Standard Ligatures lookup 0-1" f f i
LCarets2: 2 0 0
EndChar

StartChar: uniFB04
Encoding: 64260 64260 294
GlifName: uniF_B_04
Width: 1179
VWidth: 1155
Flags: HMW
LayerCount: 2
Fore
SplineSet
1159 163 m 1
 1121 63 1042 -10 931 -10 c 0
 854 -10 815 13 815 83 c 0
 815 88 816 99 817 105 c 2
 960 730 l 1
 1159 770 l 1
 1000 76 l 2
 999 70 998 63 998 58 c 0
 998 47 1003 39 1016 39 c 0
 1060 39 1116 103 1139 169 c 1
 1159 163 l 1
86 460 m 1
 836 460 l 1
 836 440 l 1
 86 440 l 1
 86 460 l 1
943 719 m 5
 931 726 892 738 860 738 c 0
 790 738 727 662 706 540 c 2
 619 38 l 2
 585 -156 451 -210 321 -210 c 0
 210 -210 144 -143 144 -81 c 0
 144 -20 180 21 240 21 c 0
 295 21 347 -13 347 -73 c 0
 347 -133 300 -172 251 -172 c 0
 241 -172 227 -169 225 -169 c 1
 237 -176 266 -188 298 -188 c 0
 368 -188 411 -112 432 10 c 2
 519 512 l 2
 554 716 707 760 847 760 c 0
 958 760 1024 693 1024 631 c 0
 1024 570 988 529 928 529 c 0
 873 529 821 563 821 623 c 0
 821 683 868 722 917 722 c 0
 925 722 937 720 943 719 c 5
564 669 m 1
 552 676 523 688 491 688 c 0
 421 688 387 662 366 540 c 2
 270 -12 l 2
 236 -206 102 -260 -28 -260 c 0
 -139 -260 -205 -193 -205 -131 c 0
 -205 -70 -169 -29 -109 -29 c 0
 -54 -29 -2 -63 -2 -123 c 0
 -2 -183 -49 -222 -98 -222 c 0
 -108 -222 -122 -219 -124 -219 c 1
 -112 -226 -83 -238 -51 -238 c 0
 19 -238 62 -162 83 -40 c 2
 170 462 l 2
 204 656 338 710 468 710 c 0
 579 710 645 643 645 581 c 0
 645 520 609 479 549 479 c 0
 494 479 442 513 442 573 c 0
 442 633 489 672 538 672 c 0
 545 672 560 670 564 669 c 1
EndSplineSet
Ligature2: "'liga' Standard Ligatures lookup 0-1" f f l
LCarets2: 2 0 0
EndChar

StartChar: ogonek
Encoding: 731 731 295
GlifName: ogonek
Width: 550
Flags: HMW
LayerCount: 2
Fore
SplineSet
388 -113 m 1
 373 -141 324 -206 223 -206 c 0
 152 -206 98 -181 98 -131 c 0
 98 -51 243 13 344 43 c 1
 348 32 l 1
 317 11 278 -52 278 -115 c 0
 278 -152 286 -164 305 -164 c 0
 331 -164 361 -127 372 -106 c 1
 388 -113 l 1
EndSplineSet
EndChar

StartChar: dotlessi
Encoding: 305 305 296
GlifName: dotlessi
Width: 414
VWidth: 1155
Flags: HMW
LayerCount: 2
Fore
SplineSet
394 163 m 1
 356 63 277 -10 166 -10 c 0
 89 -10 50 13 50 83 c 0
 50 88 50 99 52 105 c 2
 137 440 l 1
 60 440 l 1
 60 460 l 1
 332 460 l 1
 235 76 l 2
 234 70 233 63 233 58 c 0
 233 47 238 39 251 39 c 0
 295 39 351 103 374 169 c 1
 394 163 l 1
EndSplineSet
EndChar

StartChar: uni0237
Encoding: 567 567 297
GlifName: uni0237
Width: 337
VWidth: 1155
Flags: HMW
LayerCount: 2
Fore
SplineSet
-142 -218 m 1
 -130 -228 -99 -236 -67 -236 c 0
 33 -236 17 -100 45 20 c 2
 143 440 l 1
 53 440 l 1
 53 460 l 1
 338 460 l 1
 240 -12 l 2
 214 -137 68 -260 -62 -260 c 0
 -153 -260 -235 -203 -235 -136 c 0
 -235 -75 -183 -29 -123 -29 c 0
 -68 -29 -22 -70 -22 -117 c 0
 -22 -174 -71 -220 -125 -220 c 0
 -128 -220 -136 -220 -142 -218 c 1
EndSplineSet
EndChar

StartChar: kgreenlandic
Encoding: 312 312 306
GlifName: kgreenlandic
Width: 677
VWidth: 1155
Flags: HMW
LayerCount: 2
Fore
SplineSet
652 163 m 1
 614 63 545 -10 444 -10 c 0
 367 -10 311 13 311 83 c 0
 311 88 312 99 313 105 c 2
 320 140 l 2
 332 198 357 259 333 259 c 0
 312 259 288 224 279 190 c 1
 264 190 l 1
 291 272 320 294 391 294 c 0
 460 294 532 251 502 121 c 2
 490 56 l 2
 490 54 489 49 489 47 c 0
 489 36 496 31 509 31 c 0
 552 31 609 103 632 169 c 1
 652 163 l 1
273 323 m 1
 297 312 l 1
 300 282 295 261 327 261 c 0
 367 261 367 298 393 362 c 0
 421 430 470 470 530 470 c 0
 595 470 662 421 662 349 c 0
 662 294 621 249 566 249 c 0
 511 249 476 296 476 339 c 0
 476 387 516 426 564 426 c 0
 585 426 606 418 610 416 c 1
 598 433 566 450 528 450 c 0
 485 450 440 421 414 356 c 0
 387 288 387 242 327 242 c 0
 286 242 273 271 273 323 c 1
147 440 m 1
 62 440 l 1
 62 460 l 1
 342 460 l 1
 235 0 l 1
 45 0 l 1
 147 440 l 1
EndSplineSet
EndChar

StartChar: breve
Encoding: 728 728 307
GlifName: breve
Width: 320
VWidth: 1155
Flags: HMW
LayerCount: 2
Fore
SplineSet
180 759 m 5
 175 722 216 705 270 705 c 4
 324 705 384 710 400 759 c 5
 420 759 l 5
 410 698 380 570 260 570 c 4
 150 570 150 698 160 759 c 5
 180 759 l 5
EndSplineSet
EndChar

StartChar: thorn
Encoding: 254 254 318
GlifName: thorn
Width: 650
VWidth: 1155
Flags: HMW
LayerCount: 2
Fore
SplineSet
266 145 m 0
 266 92 281 58 302 58 c 0
 346 58 421 205 421 339 c 0
 421 373 407 400 386 400 c 0
 335 400 266 249 266 145 c 0
250 145 m 0
 250 253 325 469 466 469 c 0
 535 469 625 429 625 299 c 0
 625 99 468 -10 369 -10 c 0
 293 -10 250 53 250 145 c 0
-95 -230 m 1
 230 -230 l 1
 230 -250 l 1
 -95 -250 l 1
 -95 -230 l 1
196 730 m 5
 129 730 l 5
 129 750 l 5
 391 750 l 5
 285 294 l 1
 260 213 l 1
 254 152 l 1
 160 -250 l 1
 -30 -250 l 1
 196 730 l 5
EndSplineSet
EndChar

StartChar: Thorn
Encoding: 222 222 319
GlifName: T_horn
Width: 735
Flags: HMW
LayerCount: 2
Fore
SplineSet
375 180 m 6
 265 180 l 5
 265 200 l 5
 325 200 l 6
 441 200 487 371 487 480 c 4
 487 539 471 580 425 580 c 6
 260 580 l 5
 260 600 l 5
 475 600 l 6
 606 600 715 560 715 440 c 4
 715 290 576 180 375 180 c 6
-45 20 m 1
 350 20 l 1
 350 0 l 1
 -45 0 l 1
 -45 20 l 1
125 750 m 1
 520 750 l 1
 520 730 l 1
 125 730 l 1
 125 750 l 1
210 750 m 1
 425 750 l 1
 250 0 l 1
 35 0 l 1
 210 750 l 1
EndSplineSet
EndChar

StartChar: Lslash
Encoding: 321 321 324
GlifName: L_slash
Width: 652
Flags: HMW
LayerCount: 2
Fore
SplineSet
45 360 m 5
 490 580 l 5
 490 555 l 5
 45 335 l 5
 45 360 l 5
EndSplineSet
Refer: 23 76 N 1 0 0 1 0 0 2
EndChar

StartChar: lslash
Encoding: 322 322 325
GlifName: lslash
Width: 414
VWidth: 1155
Flags: HMW
LayerCount: 2
Fore
SplineSet
30 360 m 1
 435 580 l 5
 435 555 l 5
 30 335 l 1
 30 360 l 1
EndSplineSet
Refer: 49 108 N 1 0 0 1 0 0 2
EndChar

StartChar: eth
Encoding: 240 240 329
GlifName: eth
Width: 660
VWidth: 1155
Flags: HMW
LayerCount: 2
Fore
SplineSet
260 630 m 1
 720 630 l 1
 720 610 l 1
 260 610 l 1
 260 630 l 1
657 380 m 0
 657 170 467 -10 286 -10 c 0
 135 -10 40 60 40 190 c 0
 40 380 228 490 349 490 c 0
 440 490 451 457 441 340 c 1
 424 410 l 1
 424 450 408 461 391 461 c 0
 312 461 247 194 247 90 c 0
 247 26 254 10 283 10 c 0
 342 10 424 246 424 410 c 1
 437 370 l 1
 467 572 409 743 245 743 c 1
 245 760 l 1
 518 760 657 603 657 380 c 0
EndSplineSet
EndChar

StartChar: OE
Encoding: 338 338 330
GlifName: O_E_
Width: 1079
Flags: HMW
LayerCount: 2
Fore
SplineSet
539 750 m 1
 539 730 l 1
 375 730 269 387 269 155 c 0
 269 63 296 20 370 20 c 1
 370 0 l 1
 217 0 49 52 49 245 c 4
 49 558 286 750 539 750 c 1
EndSplineSet
Refer: 16 69 N 1 0 0 1 420 0 2
EndChar

StartChar: germandbls
Encoding: 223 223 332
GlifName: germandbls
Width: 851
VWidth: 1155
Flags: HMW
LayerCount: 2
Fore
SplineSet
821 240 m 4
 821 50 637 -10 496 -10 c 4
 387 -10 348 74 348 156 c 4
 348 222 390 281 455 281 c 4
 515 281 559 241 559 185 c 4
 559 133 501 90 452 90 c 4
 401 90 393 102 371 112 c 5
 384 63 419 12 486 12 c 4
 575 12 610 156 610 250 c 4
 610 344 572 396 513 396 c 5
 513 410 l 5
 694 410 821 370 821 240 c 4
-25 20 m 5
 365 20 l 5
 365 0 l 5
 -25 0 l 5
 -25 20 l 5
513 401 m 5
 513 415 l 5
 642 415 670 547 670 631 c 4
 670 703 637 743 593 743 c 4
 449 743 416 616 385 481 c 6
 275 0 l 5
 65 0 l 5
 180 491 l 6
 223 683 380 760 603 760 c 4
 736 760 886 724 886 601 c 4
 886 471 714 401 513 401 c 5
EndSplineSet
EndChar

StartChar: uni0212
Encoding: 530 530 333
GlifName: uni0212
Width: 820
VWidth: 0
Flags: HMW
LayerCount: 2
Fore
SplineSet
585 820 m 5
 590 857 549 874 495 874 c 4
 441 874 381 869 365 820 c 5
 345 820 l 5
 355 881 385 1009 505 1009 c 4
 615 1009 615 881 605 820 c 5
 585 820 l 5
EndSplineSet
Refer: 29 82 N 1 0 0 1 0 0 3
EndChar

StartChar: uni0213
Encoding: 531 531 334
GlifName: uni0213
Width: 567
VWidth: 0
Flags: HMW
LayerCount: 2
Fore
SplineSet
460 540 m 5
 465 577 424 594 370 594 c 4
 316 594 256 589 240 540 c 5
 220 540 l 5
 230 601 260 729 380 729 c 4
 490 729 490 601 480 540 c 5
 460 540 l 5
EndSplineSet
Refer: 55 114 N 1 0 0 1 0 0 3
EndChar

StartChar: circumflex
Encoding: 710 710 335
GlifName: circumflex
Width: 485
Flags: HMW
LayerCount: 2
Fore
SplineSet
372 675 m 5
 170 600 l 5
 160 610 l 5
 322 770 l 5
 427 770 l 5
 545 610 l 5
 535 600 l 5
 372 675 l 5
EndSplineSet
EndChar

StartChar: caron
Encoding: 711 711 336
GlifName: caron
Width: 485
Flags: HMW
LayerCount: 2
Fore
SplineSet
315 735 m 1
 517 810 l 1
 527 800 l 1
 365 640 l 1
 260 640 l 1
 142 800 l 1
 152 810 l 1
 315 735 l 1
EndSplineSet
EndChar

StartChar: pi
Encoding: 960 960 337
GlifName: pi
Width: 701
VWidth: 1155
Flags: HMW
LayerCount: 2
Fore
SplineSet
124 -10 m 0
 73 -10 35 23 35 68 c 0
 35 206 196 93 260 299 c 2
 307 450 l 1
 363 450 l 1
 308 243 l 2
 269 95 262 -10 124 -10 c 0
646 103 m 1
 613 33 561 -10 468 -10 c 0
 371 -10 325 64 341 129 c 2
 416 420 l 1
 626 420 l 1
 543 111 l 2
 533 74 549 65 573 65 c 0
 591 65 612 77 631 111 c 1
 646 103 l 1
716 460 m 1
 661 270 l 1
 81 270 l 1
 63 195 l 1
 43 195 l 1
 107 460 l 1
 716 460 l 1
EndSplineSet
EndChar

StartChar: uni1E9E
Encoding: 7838 7838 338
GlifName: uni1E_9E_
Width: 911
VWidth: 1155
Flags: HMW
LayerCount: 2
Fore
SplineSet
378 156 m 4
 378 222 420 281 485 281 c 0
 545 281 589 241 589 185 c 0
 589 133 531 90 482 90 c 0
 451 90 424 100 407 112 c 1
 430 43 479 12 546 12 c 0
 635 12 670 156 670 250 c 0
 670 344 632 396 573 396 c 1
 573 410 l 1
 754 410 881 370 881 240 c 0
 881 50 697 -10 556 -10 c 0
 432 -10 378 66 378 156 c 4
-25 20 m 1
 365 20 l 1
 365 0 l 1
 -25 0 l 1
 -25 20 l 1
573 401 m 1
 573 415 l 1
 702 415 730 547 730 631 c 0
 730 703 687 743 623 743 c 0
 459 743 416 616 385 481 c 2
 275 0 l 1
 65 0 l 1
 180 491 l 2
 223 683 380 760 633 760 c 0
 796 760 946 724 946 601 c 0
 946 471 774 401 573 401 c 1
EndSplineSet
EndChar

StartChar: uni203D
Encoding: 8253 8253 339
GlifName: uni203D_
Width: 640
Flags: HMW
LayerCount: 2
Fore
SplineSet
458 559 m 0
 442 452 339 428 299 278 c 1
 279 278 l 1
 309 428 280 443 280 519 c 0
 280 595 305 648 374 648 c 0
 429 648 466 610 458 559 c 0
504 610 m 0
 504 684 485 739 386 739 c 0
 272 739 162 671 132 633 c 1
 148 640 176 642 187 642 c 0
 226 642 264 610 264 550 c 0
 264 480 202 449 157 449 c 0
 107 449 70 490 70 551 c 0
 70 653 244 760 396 760 c 0
 547 760 685 720 685 590 c 0
 685 430 478 335 297 335 c 1
 297 349 l 1
 414 380 504 487 504 610 c 0
EndSplineSet
Refer: 1 46 S 1 0 0 1 109 0 2
EndChar

StartChar: R.alt
Encoding: 65536 -1 340
GlifName: R_.alt
Width: 810
Flags: HMW
LayerCount: 2
Fore
SplineSet
730 0 m 1
 714 0 646 0 610 0 c 0
 287 0 611 375 375 375 c 2
 320 375 l 1
 320 385 l 1
 445 385 l 2
 838 385 572 20 705 20 c 0
 716 20 730 20 730 20 c 1
 730 0 l 1
230 750 m 1
 445 750 l 1
 270 0 l 1
 55 0 l 1
 230 750 l 1
-35 20 m 1
 380 20 l 1
 380 0 l 1
 -35 0 l 1
 -35 20 l 1
435 382 m 2
 320 382 l 1
 320 395 l 1
 385 395 l 2
 531 395 565 561 565 640 c 0
 565 689 541 730 465 730 c 2
 130 730 l 1
 130 750 l 1
 535 750 l 2
 666 750 780 710 780 600 c 0
 780 460 636 382 435 382 c 2
EndSplineSet
EndChar

StartChar: J.alt
Encoding: 65537 -1 341
GlifName: J_.alt
Width: 721
Flags: HMW
LayerCount: 2
Fore
SplineSet
396 750 m 1
 836 750 l 1
 836 730 l 1
 396 730 l 1
 396 750 l 1
516 750 m 1
 736 750 l 1
 626 280 l 2
 590 128 372 -10 211 -10 c 0
 104 -10 5 64 5 184 c 0
 5 276 62 340 142 340 c 0
 217 340 268 292 268 216 c 0
 268 151 211 93 137 93 c 0
 85 93 39 128 30 145 c 5
 40 84 113 10 211 10 c 0
 332 10 377 116 406 250 c 2
 516 750 l 1
EndSplineSet
EndChar

StartChar: four.alt
Encoding: 65538 -1 342
GlifName: four.alt
Width: 715
VWidth: 1155
Flags: HMW
LayerCount: 2
Fore
SplineSet
640 498 m 1
 529 -1 l 1
 314 -1 l 1
 410 428 l 1
 480 428 590 468 640 498 c 1
612 20 m 1
 612 0 l 1
 227 0 l 1
 227 20 l 1
 612 20 l 1
63 205 m 5
 665 205 l 1
 665 185 l 1
 15 185 l 1
 185 385 400 590 450 750 c 1
 688 750 l 1
 659 565 203 369 63 205 c 5
EndSplineSet
EndChar

StartChar: fj.lig
Encoding: 65539 -1 343
GlifName: fj.lig
Width: 784
VWidth: 1155
Flags: HMW
LayerCount: 2
Fore
SplineSet
421 70 m 2
 508 440 l 1
 86 440 l 1
 86 460 l 1
 703 460 l 1
 616 38 l 2
 590 -87 444 -210 314 -210 c 0
 223 -210 141 -153 141 -86 c 0
 141 -25 193 21 253 21 c 0
 308 21 354 -20 354 -67 c 0
 354 -124 305 -170 251 -170 c 0
 248 -170 240 -170 234 -168 c 1
 246 -178 277 -186 309 -186 c 0
 409 -186 393 -50 421 70 c 2
623 719 m 5
 611 726 582 738 540 738 c 0
 460 738 387 662 366 540 c 2
 270 -12 l 2
 236 -206 102 -260 -28 -260 c 0
 -139 -260 -205 -193 -205 -131 c 0
 -205 -70 -169 -29 -109 -29 c 0
 -54 -29 -2 -63 -2 -123 c 0
 -2 -183 -49 -222 -98 -222 c 0
 -108 -222 -122 -219 -124 -219 c 1
 -112 -226 -83 -238 -51 -238 c 0
 19 -238 62 -162 83 -40 c 2
 179 512 l 2
 213 706 367 760 517 760 c 0
 648 760 704 693 704 631 c 0
 704 570 668 529 608 529 c 0
 553 529 501 563 501 623 c 0
 501 683 548 722 597 722 c 0
 604 722 618 720 623 719 c 5
EndSplineSet
LCarets2: 1 0
Ligature2: "'liga' Standard Ligatures lookup 0-1" f j
EndChar

StartChar: v.alt
Encoding: 65540 -1 344
Width: 606
VWidth: 1155
Flags: HW
HStem: 355 114<325 411.766>
VStem: 30 85<313.04 388.972> 123 91<39.3928 174.202> 431 20<275.283 398.401>
LayerCount: 2
Fore
SplineSet
265 475 m 1
 272 462 l 1
 231 439 215 413 215 373 c 0
 215 300 334 259 334 135 c 0
 334 118 330 79 328 56 c 1
 479 134 581 212 581 344 c 0
 581 346 581 348 580 350 c 1
 577 331 531 255 468 255 c 0
 398 255 362 307 362 362 c 0
 362 422 406 469 473 469 c 0
 566 469 601 405 601 344 c 0
 601 175 436 83 241 -12 c 1
 128 4 l 1
 130 26 143 86 143 106 c 0
 143 183 30 249 30 323 c 0
 30 403 135 441 265 475 c 1
EndSplineSet
EndChar

StartChar: uni2116
Encoding: 8470 8470 345
Width: 1206
Flags: HW
HStem: 305 20<804 1043> 380 20<907.055 974.04> 740 20<986.96 1053.94>
VStem: 804 79<430.456 605.548> 1078 79<534.452 709.544>
LayerCount: 2
Fore
SplineSet
864 325 m 5
 1134 325 l 5
 1133 305 l 5
 863 305 l 5
 864 325 l 5
1103 760 m 0
 1197 760 1265 717 1265 624 c 0
 1265 462 1136 380 1015 380 c 0
 921 380 853 423 853 516 c 0
 853 678 982 760 1103 760 c 0
987 454 m 0
 987 418 998 400 1020 400 c 0
 1071 400 1131 582 1131 686 c 0
 1131 722 1120 740 1098 740 c 0
 1047 740 987 558 987 454 c 0
EndSplineSet
Refer: 25 78 N 1 0 0 1 26 0 2
EndChar

StartChar: Euro
Encoding: 8364 8364 346
Width: 820
Flags: HWO
LayerCount: 2
Fore
SplineSet
770 680 m 5
 751 695 703 739 619 739 c 4
 430 739 349 379 349 165 c 4
 349 51 416 18 485 18 c 4
 571 18 676 95 711 178 c 5
 733 178 l 5
 697 81 574 -10 453 -10 c 4
 312 -10 133 65 133 275 c 4
 133 565 348 760 609 760 c 4
 731 760 845 668 845 586 c 4
 845 515 788 474 738 474 c 4
 693 474 631 510 631 580 c 4
 631 645 689 685 738 685 c 4
 749 685 766 681 770 680 c 5
EndSplineSet
Refer: 88 61 N 1 0 0 1 -30 -70 2
EndChar
